<?xml version="1.0" encoding="utf-8" standalone="no"?>
<!DOCTYPE svg PUBLIC "-//W3C//DTD SVG 1.1//EN"
  "http://www.w3.org/Graphics/SVG/1.1/DTD/svg11.dtd">
<svg xmlns:xlink="http://www.w3.org/1999/xlink" width="212.22874pt" height="183.887002pt" viewBox="0 0 212.22874 183.887002" xmlns="http://www.w3.org/2000/svg" version="1.1">
 <metadata>
  <rdf:RDF xmlns:dc="http://purl.org/dc/elements/1.1/" xmlns:cc="http://creativecommons.org/ns#" xmlns:rdf="http://www.w3.org/1999/02/22-rdf-syntax-ns#">
   <cc:Work>
    <dc:type rdf:resource="http://purl.org/dc/dcmitype/StillImage"/>
    <dc:date>2026-03-10T03:03:00.879949</dc:date>
    <dc:format>image/svg+xml</dc:format>
    <dc:creator>
     <cc:Agent>
      <dc:title>Matplotlib v3.10.8, https://matplotlib.org/</dc:title>
     </cc:Agent>
    </dc:creator>
   </cc:Work>
  </rdf:RDF>
 </metadata>
 <defs>
  <style type="text/css">*{stroke-linejoin: round; stroke-linecap: butt}</style>
 </defs>
 <g id="figure_1">
  <g id="patch_1">
   <path d="M 0 183.887002 
L 212.22874 183.887002 
L 212.22874 0 
L 0 0 
z
" style="fill: #ffffff"/>
  </g>
  <g id="axes_1">
   <g id="patch_2">
    <path d="M 34.95 153.540283 
L 205.02874 153.540283 
L 205.02874 12.828472 
L 34.95 12.828472 
z
" style="fill: #ffffff"/>
   </g>
   <g id="matplotlib.axis_1">
    <g id="xtick_1">
     <g id="line2d_1">
      <defs>
       <path id="m454dbea26e" d="M 0 0 
L 0 3.5 
" style="stroke: #000000; stroke-width: 0.6"/>
      </defs>
      <g>
       <use xlink:href="#m454dbea26e" x="34.95" y="153.540283" style="stroke: #000000; stroke-width: 0.6"/>
      </g>
     </g>
     <g id="text_1">
      <text style="font-size: 7px; font-family: 'Arial', 'Helvetica', 'DejaVu Sans', sans-serif; text-anchor: middle" x="34.95" y="164.050752" transform="rotate(-0 34.95 164.050752)">0</text>
     </g>
    </g>
    <g id="xtick_2">
     <g id="line2d_2">
      <g>
       <use xlink:href="#m454dbea26e" x="65.873407" y="153.540283" style="stroke: #000000; stroke-width: 0.6"/>
      </g>
     </g>
     <g id="text_2">
      <text style="font-size: 7px; font-family: 'Arial', 'Helvetica', 'DejaVu Sans', sans-serif; text-anchor: middle" x="65.873407" y="164.050752" transform="rotate(-0 65.873407 164.050752)">200</text>
     </g>
    </g>
    <g id="xtick_3">
     <g id="line2d_3">
      <g>
       <use xlink:href="#m454dbea26e" x="96.796815" y="153.540283" style="stroke: #000000; stroke-width: 0.6"/>
      </g>
     </g>
     <g id="text_3">
      <text style="font-size: 7px; font-family: 'Arial', 'Helvetica', 'DejaVu Sans', sans-serif; text-anchor: middle" x="96.796815" y="164.050752" transform="rotate(-0 96.796815 164.050752)">400</text>
     </g>
    </g>
    <g id="xtick_4">
     <g id="line2d_4">
      <g>
       <use xlink:href="#m454dbea26e" x="127.720222" y="153.540283" style="stroke: #000000; stroke-width: 0.6"/>
      </g>
     </g>
     <g id="text_4">
      <text style="font-size: 7px; font-family: 'Arial', 'Helvetica', 'DejaVu Sans', sans-serif; text-anchor: middle" x="127.720222" y="164.050752" transform="rotate(-0 127.720222 164.050752)">600</text>
     </g>
    </g>
    <g id="xtick_5">
     <g id="line2d_5">
      <g>
       <use xlink:href="#m454dbea26e" x="158.643629" y="153.540283" style="stroke: #000000; stroke-width: 0.6"/>
      </g>
     </g>
     <g id="text_5">
      <text style="font-size: 7px; font-family: 'Arial', 'Helvetica', 'DejaVu Sans', sans-serif; text-anchor: middle" x="158.643629" y="164.050752" transform="rotate(-0 158.643629 164.050752)">800</text>
     </g>
    </g>
    <g id="xtick_6">
     <g id="line2d_6">
      <g>
       <use xlink:href="#m454dbea26e" x="189.567037" y="153.540283" style="stroke: #000000; stroke-width: 0.6"/>
      </g>
     </g>
     <g id="text_6">
      <text style="font-size: 7px; font-family: 'Arial', 'Helvetica', 'DejaVu Sans', sans-serif; text-anchor: middle" x="189.567037" y="164.050752" transform="rotate(-0 189.567037 164.050752)">1000</text>
     </g>
    </g>
    <g id="text_7">
     <!-- $\delta$ ($\mu$m) -->
     <g transform="translate(107.11187 174.817002)">
      <text>
       <tspan x="0" y="-0.3125" style="font-style: oblique; font-size: 8.5px; font-family: 'DejaVu Sans'">δ</tspan>
       <tspan x="10.392578" y="-0.3125" style="font-style: oblique; font-size: 8.5px; font-family: 'DejaVu Sans'">μ</tspan>
       <tspan x="5.200439" y="-0.3125" style="font-size: 8.5px; font-family: 'Arial'"> </tspan>
       <tspan x="7.562012" y="-0.3125" style="font-size: 8.5px; font-family: 'Arial'">(</tspan>
       <tspan x="15.800537" y="-0.3125" style="font-size: 8.5px; font-family: 'Arial'">m</tspan>
       <tspan x="22.881104" y="-0.3125" style="font-size: 8.5px; font-family: 'Arial'">)</tspan>
      </text>
     </g>
    </g>
   </g>
   <g id="matplotlib.axis_2">
    <g id="ytick_1">
     <g id="line2d_7">
      <defs>
       <path id="m9fb0814a1e" d="M 0 0 
L -3.5 0 
" style="stroke: #000000; stroke-width: 0.6"/>
      </defs>
      <g>
       <use xlink:href="#m9fb0814a1e" x="34.95" y="138.218656" style="stroke: #000000; stroke-width: 0.6"/>
      </g>
     </g>
     <g id="text_8">
      <text style="font-size: 7px; font-family: 'Arial', 'Helvetica', 'DejaVu Sans', sans-serif; text-anchor: end" x="29.45" y="140.72389" transform="rotate(-0 29.45 140.72389)">0.0</text>
     </g>
    </g>
    <g id="ytick_2">
     <g id="line2d_8">
      <g>
       <use xlink:href="#m9fb0814a1e" x="34.95" y="112.989319" style="stroke: #000000; stroke-width: 0.6"/>
      </g>
     </g>
     <g id="text_9">
      <text style="font-size: 7px; font-family: 'Arial', 'Helvetica', 'DejaVu Sans', sans-serif; text-anchor: end" x="29.45" y="115.494553" transform="rotate(-0 29.45 115.494553)">0.5</text>
     </g>
    </g>
    <g id="ytick_3">
     <g id="line2d_9">
      <g>
       <use xlink:href="#m9fb0814a1e" x="34.95" y="87.759982" style="stroke: #000000; stroke-width: 0.6"/>
      </g>
     </g>
     <g id="text_10">
      <text style="font-size: 7px; font-family: 'Arial', 'Helvetica', 'DejaVu Sans', sans-serif; text-anchor: end" x="29.45" y="90.265217" transform="rotate(-0 29.45 90.265217)">1.0</text>
     </g>
    </g>
    <g id="ytick_4">
     <g id="line2d_10">
      <g>
       <use xlink:href="#m9fb0814a1e" x="34.95" y="62.530646" style="stroke: #000000; stroke-width: 0.6"/>
      </g>
     </g>
     <g id="text_11">
      <text style="font-size: 7px; font-family: 'Arial', 'Helvetica', 'DejaVu Sans', sans-serif; text-anchor: end" x="29.45" y="65.03588" transform="rotate(-0 29.45 65.03588)">1.5</text>
     </g>
    </g>
    <g id="ytick_5">
     <g id="line2d_11">
      <g>
       <use xlink:href="#m9fb0814a1e" x="34.95" y="37.301309" style="stroke: #000000; stroke-width: 0.6"/>
      </g>
     </g>
     <g id="text_12">
      <text style="font-size: 7px; font-family: 'Arial', 'Helvetica', 'DejaVu Sans', sans-serif; text-anchor: end" x="29.45" y="39.806543" transform="rotate(-0 29.45 39.806543)">2.0</text>
     </g>
    </g>
    <g id="text_13">
     <!-- d$\tau_{50}$/d$r$ (min mm$^{-1}$) -->
     <g transform="translate(14.85 120.966878) rotate(-90)">
      <text>
       <tspan x="0" y="-0.960938" style="font-size: 8.5px; font-family: 'Arial'">d</tspan>
       <tspan x="17.661963" y="-0.960938" style="font-size: 8.5px; font-family: 'Arial'">/</tspan>
       <tspan x="20.023535" y="-0.960938" style="font-size: 8.5px; font-family: 'Arial'">d</tspan>
       <tspan x="28.245459" y="-0.960938" style="font-size: 8.5px; font-family: 'Arial'"> </tspan>
       <tspan x="30.607031" y="-0.960938" style="font-size: 8.5px; font-family: 'Arial'">(</tspan>
       <tspan x="33.437598" y="-0.960938" style="font-size: 8.5px; font-family: 'Arial'">m</tspan>
       <tspan x="40.518164" y="-0.960938" style="font-size: 8.5px; font-family: 'Arial'">i</tspan>
       <tspan x="42.406592" y="-0.960938" style="font-size: 8.5px; font-family: 'Arial'">n</tspan>
       <tspan x="47.133887" y="-0.960938" style="font-size: 8.5px; font-family: 'Arial'"> </tspan>
       <tspan x="49.495459" y="-0.960938" style="font-size: 8.5px; font-family: 'Arial'">m</tspan>
       <tspan x="56.576025" y="-0.960938" style="font-size: 8.5px; font-family: 'Arial'">m</tspan>
       <tspan x="72.759839" y="-0.960938" style="font-size: 8.5px; font-family: 'Arial'">)</tspan>
       <tspan x="4.727295" y="-0.960938" style="font-style: oblique; font-size: 8.5px; font-family: 'DejaVu Sans'">τ</tspan>
       <tspan x="24.75083" y="-0.960938" style="font-style: oblique; font-size: 8.5px; font-family: 'DejaVu Sans'">r</tspan>
       <tspan x="9.844727" y="0.515625" style="font-size: 5.95px; font-family: 'DejaVu Sans'">5</tspan>
       <tspan x="13.630298" y="0.515625" style="font-size: 5.95px; font-family: 'DejaVu Sans'">0</tspan>
       <tspan x="63.742725" y="-4.40625" style="font-size: 5.95px; font-family: 'DejaVu Sans'">−</tspan>
       <tspan x="68.728174" y="-4.40625" style="font-size: 5.95px; font-family: 'DejaVu Sans'">1</tspan>
      </text>
     </g>
    </g>
   </g>
   <g id="line2d_12">
    <path d="M 34.95 138.883708 
L 36.667967 137.675029 
L 38.385934 136.46635 
L 40.103901 135.257671 
L 41.821868 134.048991 
L 43.539835 132.840312 
L 45.257802 131.631633 
L 46.97577 130.422954 
L 48.693737 129.214275 
L 50.411704 128.005595 
L 52.129671 126.796916 
L 53.847638 125.588237 
L 55.565605 124.379558 
L 57.283572 123.170878 
L 59.001539 121.962199 
L 60.719506 120.75352 
L 62.437473 119.544841 
L 64.15544 118.336161 
L 65.873407 117.127482 
L 67.591374 115.918803 
L 69.309341 114.710124 
L 71.027309 113.501444 
L 72.745276 112.292765 
L 74.463243 111.084086 
L 76.18121 109.875407 
L 77.899177 108.666727 
L 79.617144 107.458048 
L 81.335111 106.249369 
L 83.053078 105.04069 
L 84.771045 103.832011 
L 86.489012 102.623331 
L 88.206979 101.414652 
L 89.924946 100.205973 
L 91.642913 98.997294 
L 93.36088 97.788614 
L 95.078848 96.579935 
L 96.796815 95.371256 
L 98.514782 94.162577 
L 100.232749 92.953897 
L 101.950716 91.745218 
L 103.668683 90.536539 
L 105.38665 89.32786 
L 107.104617 88.11918 
L 108.822584 86.910501 
L 110.540551 85.701822 
L 112.258518 84.493143 
L 113.976485 83.284463 
L 115.694452 82.075784 
L 117.412419 80.867105 
L 119.130387 79.658426 
L 120.848354 78.449747 
L 122.566321 77.241067 
L 124.284288 76.032388 
L 126.002255 74.823709 
L 127.720222 73.61503 
L 129.438189 72.40635 
L 131.156156 71.197671 
L 132.874123 69.988992 
L 134.59209 68.780313 
L 136.310057 67.571633 
L 138.028024 66.362954 
L 139.745991 65.154275 
L 141.463958 63.945596 
L 143.181926 62.736916 
L 144.899893 61.528237 
L 146.61786 60.319558 
L 148.335827 59.110879 
L 150.053794 57.902199 
L 151.771761 56.69352 
L 153.489728 55.484841 
L 155.207695 54.276162 
L 156.925662 53.067483 
L 158.643629 51.858803 
L 160.361596 50.650124 
L 162.079563 49.441445 
L 163.79753 48.232766 
L 165.515497 47.024086 
L 167.233465 45.815407 
L 168.951432 44.606728 
L 170.669399 43.398049 
L 172.387366 42.189369 
L 174.105333 40.98069 
L 175.8233 39.772011 
L 177.541267 38.563332 
L 179.259234 37.354652 
L 180.977201 36.145973 
L 182.695168 34.937294 
L 184.413135 33.728615 
L 186.131102 32.519935 
L 187.849069 31.311256 
L 189.567037 30.102577 
L 191.285004 28.893898 
L 193.002971 27.685219 
L 194.720938 26.476539 
L 196.438905 25.26786 
L 198.156872 24.059181 
L 199.874839 22.850502 
L 201.592806 21.641822 
L 203.310773 20.433143 
L 205.02874 19.224464 
" clip-path="url(#pddf7014143)" style="fill: none; stroke: #333333; stroke-opacity: 0.7; stroke-width: 0.8; stroke-linecap: square"/>
   </g>
   <g id="line2d_13">
    <path d="M 34.95 147.144292 
L 36.667967 146.025989 
L 38.385934 144.907685 
L 40.103901 143.789382 
L 41.821868 142.671078 
L 43.539835 141.552775 
L 45.257802 140.434471 
L 46.97577 139.316168 
L 48.693737 138.197864 
L 50.411704 137.079561 
L 52.129671 135.961257 
L 53.847638 134.842954 
L 55.565605 133.72465 
L 57.283572 132.606347 
L 59.001539 131.488043 
L 60.719506 130.36974 
L 62.437473 129.251436 
L 64.15544 128.133133 
L 65.873407 127.014829 
L 67.591374 125.896526 
L 69.309341 124.778223 
L 71.027309 123.659919 
L 72.745276 122.541616 
L 74.463243 121.423312 
L 76.18121 120.305009 
L 77.899177 119.186705 
L 79.617144 118.068402 
L 81.335111 116.950098 
L 83.053078 115.831795 
L 84.771045 114.713491 
L 86.489012 113.595188 
L 88.206979 112.476884 
L 89.924946 111.358581 
L 91.642913 110.240277 
L 93.36088 109.121974 
L 95.078848 108.00367 
L 96.796815 106.885367 
L 98.514782 105.767063 
L 100.232749 104.64876 
L 101.950716 103.530456 
L 103.668683 102.412153 
L 105.38665 101.29385 
L 107.104617 100.175546 
L 108.822584 99.057243 
L 110.540551 97.938939 
L 112.258518 96.820636 
L 113.976485 95.702332 
L 115.694452 94.584029 
L 117.412419 93.465725 
L 119.130387 92.347422 
L 120.848354 91.229118 
L 122.566321 90.110815 
L 124.284288 88.992511 
L 126.002255 87.874208 
L 127.720222 86.755904 
L 129.438189 85.637601 
L 131.156156 84.519297 
L 132.874123 83.400994 
L 134.59209 82.28269 
L 136.310057 81.164387 
L 138.028024 80.046083 
L 139.745991 78.92778 
L 141.463958 77.809477 
L 143.181926 76.691173 
L 144.899893 75.57287 
L 146.61786 74.454566 
L 148.335827 73.336263 
L 150.053794 72.217959 
L 151.771761 71.099656 
L 153.489728 69.981352 
L 155.207695 68.863049 
L 156.925662 67.744745 
L 158.643629 66.626442 
L 160.361596 65.508138 
L 162.079563 64.389835 
L 163.79753 63.271531 
L 165.515497 62.153228 
L 167.233465 61.034924 
L 168.951432 59.916621 
L 170.669399 58.798317 
L 172.387366 57.680014 
L 174.105333 56.56171 
L 175.8233 55.443407 
L 177.541267 54.325104 
L 179.259234 53.2068 
L 180.977201 52.088497 
L 182.695168 50.970193 
L 184.413135 49.85189 
L 186.131102 48.733586 
L 187.849069 47.615283 
L 189.567037 46.496979 
L 191.285004 45.378676 
L 193.002971 44.260372 
L 194.720938 43.142069 
L 196.438905 42.023765 
L 198.156872 40.905462 
L 199.874839 39.787158 
L 201.592806 38.668855 
L 203.310773 37.550551 
L 205.02874 36.432248 
" clip-path="url(#pddf7014143)" style="fill: none; stroke: #c0392b; stroke-opacity: 0.7; stroke-width: 0.8; stroke-linecap: square"/>
   </g>
   <g id="patch_3">
    <path d="M 34.95 153.540283 
L 34.95 12.828472 
" style="fill: none; stroke: #000000; stroke-width: 0.6; stroke-linejoin: miter; stroke-linecap: square"/>
   </g>
   <g id="patch_4">
    <path d="M 34.95 153.540283 
L 205.02874 153.540283 
" style="fill: none; stroke: #000000; stroke-width: 0.6; stroke-linejoin: miter; stroke-linecap: square"/>
   </g>
   <g id="PathCollection_1">
    <defs>
     <path id="C0_0_a576cb7586" d="M 0 2.12132 
C 0.562581 2.12132 1.102195 1.897805 1.5 1.5 
C 1.897805 1.102195 2.12132 0.562581 2.12132 -0 
C 2.12132 -0.562581 1.897805 -1.102195 1.5 -1.5 
C 1.102195 -1.897805 0.562581 -2.12132 0 -2.12132 
C -0.562581 -2.12132 -1.102195 -1.897805 -1.5 -1.5 
C -1.897805 -1.102195 -2.12132 -0.562581 -2.12132 0 
C -2.12132 0.562581 -1.897805 1.102195 -1.5 1.5 
C -1.102195 1.897805 -0.562581 2.12132 0 2.12132 
z
"/>
    </defs>
    <g clip-path="url(#pddf7014143)">
     <use xlink:href="#C0_0_a576cb7586" x="46.979205" y="133.112719" style="fill: #3a9e6f; fill-opacity: 0.25"/>
    </g>
    <g clip-path="url(#pddf7014143)">
     <use xlink:href="#C0_0_a576cb7586" x="49.236614" y="138.404166" style="fill: #3a9e6f; fill-opacity: 0.25"/>
    </g>
    <g clip-path="url(#pddf7014143)">
     <use xlink:href="#C0_0_a576cb7586" x="60.229885" y="142.723894" style="fill: #3a9e6f; fill-opacity: 0.25"/>
    </g>
    <g clip-path="url(#pddf7014143)">
     <use xlink:href="#C0_0_a576cb7586" x="50.427165" y="137.703351" style="fill: #3a9e6f; fill-opacity: 0.25"/>
    </g>
    <g clip-path="url(#pddf7014143)">
     <use xlink:href="#C0_0_a576cb7586" x="50.659091" y="141.822847" style="fill: #3a9e6f; fill-opacity: 0.25"/>
    </g>
   </g>
   <g id="PathCollection_2">
    <defs>
     <path id="C1_0_a787d07f6d" d="M 0 2.12132 
C 0.562581 2.12132 1.102195 1.897805 1.5 1.5 
C 1.897805 1.102195 2.12132 0.562581 2.12132 -0 
C 2.12132 -0.562581 1.897805 -1.102195 1.5 -1.5 
C 1.102195 -1.897805 0.562581 -2.12132 0 -2.12132 
C -0.562581 -2.12132 -1.102195 -1.897805 -1.5 -1.5 
C -1.897805 -1.102195 -2.12132 -0.562581 -2.12132 0 
C -2.12132 0.562581 -1.897805 1.102195 -1.5 1.5 
C -1.102195 1.897805 -0.562581 2.12132 0 2.12132 
z
"/>
    </defs>
    <g clip-path="url(#pddf7014143)">
     <use xlink:href="#C1_0_a787d07f6d" x="99.966464" y="83.493256" style="fill: #3a6fbf; fill-opacity: 0.25"/>
    </g>
    <g clip-path="url(#pddf7014143)">
     <use xlink:href="#C1_0_a787d07f6d" x="79.263243" y="93.766967" style="fill: #3a6fbf; fill-opacity: 0.25"/>
    </g>
    <g clip-path="url(#pddf7014143)">
     <use xlink:href="#C1_0_a787d07f6d" x="99.904617" y="73.042869" style="fill: #3a6fbf; fill-opacity: 0.25"/>
    </g>
    <g clip-path="url(#pddf7014143)">
     <use xlink:href="#C1_0_a787d07f6d" x="91.184216" y="92.56557" style="fill: #3a6fbf; fill-opacity: 0.25"/>
    </g>
    <g clip-path="url(#pddf7014143)">
     <use xlink:href="#C1_0_a787d07f6d" x="106.491303" y="94.81819" style="fill: #3a6fbf; fill-opacity: 0.25"/>
    </g>
   </g>
   <g id="PathCollection_3">
    <defs>
     <path id="C2_0_802a673308" d="M 0 2.12132 
C 0.562581 2.12132 1.102195 1.897805 1.5 1.5 
C 1.897805 1.102195 2.12132 0.562581 2.12132 -0 
C 2.12132 -0.562581 1.897805 -1.102195 1.5 -1.5 
C 1.102195 -1.897805 0.562581 -2.12132 0 -2.12132 
C -0.562581 -2.12132 -1.102195 -1.897805 -1.5 -1.5 
C -1.897805 -1.102195 -2.12132 -0.562581 -2.12132 0 
C -2.12132 0.562581 -1.897805 1.102195 -1.5 1.5 
C -1.102195 1.897805 -0.562581 2.12132 0 2.12132 
z
"/>
    </defs>
    <g clip-path="url(#pddf7014143)">
     <use xlink:href="#C2_0_802a673308" x="140.259664" y="49.269071" style="fill: #c0392b; fill-opacity: 0.25"/>
    </g>
    <g clip-path="url(#pddf7014143)">
     <use xlink:href="#C2_0_802a673308" x="159.138404" y="50.193223" style="fill: #c0392b; fill-opacity: 0.25"/>
    </g>
    <g clip-path="url(#pddf7014143)">
     <use xlink:href="#C2_0_802a673308" x="179.269542" y="70.881615" style="fill: #c0392b; fill-opacity: 0.25"/>
    </g>
    <g clip-path="url(#pddf7014143)">
     <use xlink:href="#C2_0_802a673308" x="169.915211" y="24.814062" style="fill: #c0392b; fill-opacity: 0.25"/>
    </g>
    <g clip-path="url(#pddf7014143)">
     <use xlink:href="#C2_0_802a673308" x="190.401969" y="30.323965" style="fill: #c0392b; fill-opacity: 0.25"/>
    </g>
   </g>
   <g id="PathCollection_4">
    <path d="M 78.165462 119.695176 
L 81.165462 116.695176 
L 78.165462 113.695176 
L 75.165462 116.695176 
z
" clip-path="url(#pddf7014143)" style="fill: #4caf50; fill-opacity: 0.25"/>
    <path d="M 70.666535 106.763731 
L 73.666535 103.763731 
L 70.666535 100.763731 
L 67.666535 103.763731 
z
" clip-path="url(#pddf7014143)" style="fill: #4caf50; fill-opacity: 0.25"/>
    <path d="M 83.808984 124.772287 
L 86.808984 121.772287 
L 83.808984 118.772287 
L 80.808984 121.772287 
z
" clip-path="url(#pddf7014143)" style="fill: #4caf50; fill-opacity: 0.25"/>
    <path d="M 79.108626 121.307268 
L 82.108626 118.307268 
L 79.108626 115.307268 
L 76.108626 118.307268 
z
" clip-path="url(#pddf7014143)" style="fill: #4caf50; fill-opacity: 0.25"/>
    <path d="M 83.14413 121.740124 
L 86.14413 118.740124 
L 83.14413 115.740124 
L 80.14413 118.740124 
z
" clip-path="url(#pddf7014143)" style="fill: #4caf50; fill-opacity: 0.25"/>
   </g>
   <g id="PathCollection_5">
    <path d="M 65.641482 107.35823 
L 68.641482 104.35823 
L 65.641482 101.35823 
L 62.641482 104.35823 
z
" clip-path="url(#pddf7014143)" style="fill: #9e9e9e; fill-opacity: 0.25"/>
    <path d="M 54.46267 117.3085 
L 57.46267 114.3085 
L 54.46267 111.3085 
L 51.46267 114.3085 
z
" clip-path="url(#pddf7014143)" style="fill: #9e9e9e; fill-opacity: 0.25"/>
    <path d="M 53.504044 96.696297 
L 56.504044 93.696297 
L 53.504044 90.696297 
L 50.504044 93.696297 
z
" clip-path="url(#pddf7014143)" style="fill: #9e9e9e; fill-opacity: 0.25"/>
    <path d="M 55.297602 108.344066 
L 58.297602 105.344066 
L 55.297602 102.344066 
L 52.297602 105.344066 
z
" clip-path="url(#pddf7014143)" style="fill: #9e9e9e; fill-opacity: 0.25"/>
    <path d="M 53.967895 134.839721 
L 56.967895 131.839721 
L 53.967895 128.839721 
L 50.967895 131.839721 
z
" clip-path="url(#pddf7014143)" style="fill: #9e9e9e; fill-opacity: 0.25"/>
   </g>
   <g id="PathCollection_6">
    <path d="M 54.338976 141.218656 
L 57.338976 138.218656 
L 54.338976 135.218656 
L 51.338976 138.218656 
z
" clip-path="url(#pddf7014143)" style="fill: #212121; fill-opacity: 0.25"/>
    <path d="M 50.10247 137.614465 
L 53.10247 134.614465 
L 50.10247 131.614465 
L 47.10247 134.614465 
z
" clip-path="url(#pddf7014143)" style="fill: #212121; fill-opacity: 0.25"/>
    <path d="M 55.931532 126.617062 
L 58.931532 123.617062 
L 55.931532 120.617062 
L 52.931532 123.617062 
z
" clip-path="url(#pddf7014143)" style="fill: #212121; fill-opacity: 0.25"/>
    <path d="M 47.056514 131.802133 
L 50.056514 128.802133 
L 47.056514 125.802133 
L 44.056514 128.802133 
z
" clip-path="url(#pddf7014143)" style="fill: #212121; fill-opacity: 0.25"/>
   </g>
   <g id="text_14">
    <!-- Overall $R^2$ = 0.81 -->
    <g style="fill: #333333" transform="translate(146.019803 126.920282)">
     <text>
      <tspan x="0" y="-0.678125" style="font-size: 6.5px; font-family: 'Arial'; fill: #333333">O</tspan>
      <tspan x="5.055908" y="-0.678125" style="font-size: 6.5px; font-family: 'Arial'; fill: #333333">v</tspan>
      <tspan x="8.305908" y="-0.678125" style="font-size: 6.5px; font-family: 'Arial'; fill: #333333">e</tspan>
      <tspan x="11.920898" y="-0.678125" style="font-size: 6.5px; font-family: 'Arial'; fill: #333333">r</tspan>
      <tspan x="14.085449" y="-0.678125" style="font-size: 6.5px; font-family: 'Arial'; fill: #333333">a</tspan>
      <tspan x="17.700439" y="-0.678125" style="font-size: 6.5px; font-family: 'Arial'; fill: #333333">l</tspan>
      <tspan x="19.144531" y="-0.678125" style="font-size: 6.5px; font-family: 'Arial'; fill: #333333">l</tspan>
      <tspan x="20.588623" y="-0.678125" style="font-size: 6.5px; font-family: 'Arial'; fill: #333333"> </tspan>
      <tspan x="30.489149" y="-0.678125" style="font-size: 6.5px; font-family: 'Arial'; fill: #333333"> </tspan>
      <tspan x="32.295057" y="-0.678125" style="font-size: 6.5px; font-family: 'Arial'; fill: #333333">=</tspan>
      <tspan x="36.090955" y="-0.678125" style="font-size: 6.5px; font-family: 'Arial'; fill: #333333"> </tspan>
      <tspan x="37.896864" y="-0.678125" style="font-size: 6.5px; font-family: 'Arial'; fill: #333333">0</tspan>
      <tspan x="41.511854" y="-0.678125" style="font-size: 6.5px; font-family: 'Arial'; fill: #333333">.</tspan>
      <tspan x="43.317762" y="-0.678125" style="font-size: 6.5px; font-family: 'Arial'; fill: #333333">8</tspan>
      <tspan x="46.932752" y="-0.678125" style="font-size: 6.5px; font-family: 'Arial'; fill: #333333">1</tspan>
      <tspan x="22.394531" y="-0.678125" style="font-style: oblique; font-size: 6.5px; font-family: 'DejaVu Sans'; fill: #333333">R</tspan>
      <tspan x="27.402894" y="-3.357812" style="font-size: 4.55px; font-family: 'DejaVu Sans'; fill: #333333">2</tspan>
     </text>
    </g>
   </g>
   <g id="text_15">
    <!-- Size-matched $R^2$ = 0.83 -->
    <g style="fill: #c0392b" transform="translate(126.844803 140.991464)">
     <text>
      <tspan x="0" y="-0.678125" style="font-size: 6.5px; font-family: 'Arial'; fill: #c0392b">S</tspan>
      <tspan x="4.335449" y="-0.678125" style="font-size: 6.5px; font-family: 'Arial'; fill: #c0392b">i</tspan>
      <tspan x="5.779541" y="-0.678125" style="font-size: 6.5px; font-family: 'Arial'; fill: #c0392b">z</tspan>
      <tspan x="9.029541" y="-0.678125" style="font-size: 6.5px; font-family: 'Arial'; fill: #c0392b">e</tspan>
      <tspan x="12.644531" y="-0.678125" style="font-size: 6.5px; font-family: 'Arial'; fill: #c0392b">-</tspan>
      <tspan x="14.809082" y="-0.678125" style="font-size: 6.5px; font-family: 'Arial'; fill: #c0392b">m</tspan>
      <tspan x="20.223633" y="-0.678125" style="font-size: 6.5px; font-family: 'Arial'; fill: #c0392b">a</tspan>
      <tspan x="23.838623" y="-0.678125" style="font-size: 6.5px; font-family: 'Arial'; fill: #c0392b">t</tspan>
      <tspan x="25.644531" y="-0.678125" style="font-size: 6.5px; font-family: 'Arial'; fill: #c0392b">c</tspan>
      <tspan x="28.894531" y="-0.678125" style="font-size: 6.5px; font-family: 'Arial'; fill: #c0392b">h</tspan>
      <tspan x="32.509521" y="-0.678125" style="font-size: 6.5px; font-family: 'Arial'; fill: #c0392b">e</tspan>
      <tspan x="36.124512" y="-0.678125" style="font-size: 6.5px; font-family: 'Arial'; fill: #c0392b">d</tspan>
      <tspan x="39.739502" y="-0.678125" style="font-size: 6.5px; font-family: 'Arial'; fill: #c0392b"> </tspan>
      <tspan x="49.640028" y="-0.678125" style="font-size: 6.5px; font-family: 'Arial'; fill: #c0392b"> </tspan>
      <tspan x="51.445936" y="-0.678125" style="font-size: 6.5px; font-family: 'Arial'; fill: #c0392b">=</tspan>
      <tspan x="55.241834" y="-0.678125" style="font-size: 6.5px; font-family: 'Arial'; fill: #c0392b"> </tspan>
      <tspan x="57.047743" y="-0.678125" style="font-size: 6.5px; font-family: 'Arial'; fill: #c0392b">0</tspan>
      <tspan x="60.662733" y="-0.678125" style="font-size: 6.5px; font-family: 'Arial'; fill: #c0392b">.</tspan>
      <tspan x="62.468641" y="-0.678125" style="font-size: 6.5px; font-family: 'Arial'; fill: #c0392b">8</tspan>
      <tspan x="66.083631" y="-0.678125" style="font-size: 6.5px; font-family: 'Arial'; fill: #c0392b">3</tspan>
      <tspan x="41.54541" y="-0.678125" style="font-style: oblique; font-size: 6.5px; font-family: 'DejaVu Sans'; fill: #c0392b">R</tspan>
      <tspan x="46.553773" y="-3.357812" style="font-size: 4.55px; font-family: 'DejaVu Sans'; fill: #c0392b">2</tspan>
     </text>
    </g>
   </g>
   <g id="text_16">
    <text style="font-weight: 700; font-size: 12px; font-family: 'Arial', 'Helvetica', 'DejaVu Sans', sans-serif; text-anchor: start" x="11.138976" y="15.789375" transform="rotate(-0 11.138976 15.789375)">D</text>
   </g>
   <g id="LineCollection_1">
    <path d="M 49.230109 138.753395 
L 53.782675 138.753395 
" clip-path="url(#pddf7014143)" style="fill: none; stroke: #2e7d32; stroke-width: 0.6"/>
   </g>
   <g id="LineCollection_2">
    <path d="M 51.506392 140.45968 
L 51.506392 137.04711 
" clip-path="url(#pddf7014143)" style="fill: none; stroke: #2e7d32; stroke-width: 0.6"/>
   </g>
   <g id="line2d_14">
    <defs>
     <path id="m933ed8fd0d" d="M 0 2.5 
L 0 -2.5 
" style="stroke: #2e7d32; stroke-width: 0.4"/>
    </defs>
    <g clip-path="url(#pddf7014143)">
     <use xlink:href="#m933ed8fd0d" x="49.230109" y="138.753395" style="fill: #3a9e6f; stroke: #2e7d32; stroke-width: 0.4"/>
    </g>
   </g>
   <g id="line2d_15">
    <g clip-path="url(#pddf7014143)">
     <use xlink:href="#m933ed8fd0d" x="53.782675" y="138.753395" style="fill: #3a9e6f; stroke: #2e7d32; stroke-width: 0.4"/>
    </g>
   </g>
   <g id="line2d_16">
    <defs>
     <path id="mfd6b858327" d="M 2.5 0 
L -2.5 -0 
" style="stroke: #2e7d32; stroke-width: 0.4"/>
    </defs>
    <g clip-path="url(#pddf7014143)">
     <use xlink:href="#mfd6b858327" x="51.506392" y="140.45968" style="fill: #3a9e6f; stroke: #2e7d32; stroke-width: 0.4"/>
    </g>
   </g>
   <g id="line2d_17">
    <g clip-path="url(#pddf7014143)">
     <use xlink:href="#mfd6b858327" x="51.506392" y="137.04711" style="fill: #3a9e6f; stroke: #2e7d32; stroke-width: 0.4"/>
    </g>
   </g>
   <g id="LineCollection_3">
    <path d="M 90.659194 87.537371 
L 100.064743 87.537371 
" clip-path="url(#pddf7014143)" style="fill: none; stroke: #2c5f9f; stroke-width: 0.6"/>
   </g>
   <g id="LineCollection_4">
    <path d="M 95.361969 91.681924 
L 95.361969 83.392817 
" clip-path="url(#pddf7014143)" style="fill: none; stroke: #2c5f9f; stroke-width: 0.6"/>
   </g>
   <g id="line2d_18">
    <defs>
     <path id="maf1e60a539" d="M 0 2.5 
L 0 -2.5 
" style="stroke: #2c5f9f; stroke-width: 0.4"/>
    </defs>
    <g clip-path="url(#pddf7014143)">
     <use xlink:href="#maf1e60a539" x="90.659194" y="87.537371" style="fill: #3a6fbf; stroke: #2c5f9f; stroke-width: 0.4"/>
    </g>
   </g>
   <g id="line2d_19">
    <g clip-path="url(#pddf7014143)">
     <use xlink:href="#maf1e60a539" x="100.064743" y="87.537371" style="fill: #3a6fbf; stroke: #2c5f9f; stroke-width: 0.4"/>
    </g>
   </g>
   <g id="line2d_20">
    <defs>
     <path id="mc4d1b79312" d="M 2.5 0 
L -2.5 -0 
" style="stroke: #2c5f9f; stroke-width: 0.4"/>
    </defs>
    <g clip-path="url(#pddf7014143)">
     <use xlink:href="#mc4d1b79312" x="95.361969" y="91.681924" style="fill: #3a6fbf; stroke: #2c5f9f; stroke-width: 0.4"/>
    </g>
   </g>
   <g id="line2d_21">
    <g clip-path="url(#pddf7014143)">
     <use xlink:href="#mc4d1b79312" x="95.361969" y="83.392817" style="fill: #3a6fbf; stroke: #2c5f9f; stroke-width: 0.4"/>
    </g>
   </g>
   <g id="LineCollection_5">
    <path d="M 159.193567 45.096387 
L 176.400349 45.096387 
" clip-path="url(#pddf7014143)" style="fill: none; stroke: #922b21; stroke-width: 0.6"/>
   </g>
   <g id="LineCollection_6">
    <path d="M 167.796958 53.275214 
L 167.796958 36.91756 
" clip-path="url(#pddf7014143)" style="fill: none; stroke: #922b21; stroke-width: 0.6"/>
   </g>
   <g id="line2d_22">
    <defs>
     <path id="mfb7fb97182" d="M 0 2.5 
L 0 -2.5 
" style="stroke: #922b21; stroke-width: 0.4"/>
    </defs>
    <g clip-path="url(#pddf7014143)">
     <use xlink:href="#mfb7fb97182" x="159.193567" y="45.096387" style="fill: #c0392b; stroke: #922b21; stroke-width: 0.4"/>
    </g>
   </g>
   <g id="line2d_23">
    <g clip-path="url(#pddf7014143)">
     <use xlink:href="#mfb7fb97182" x="176.400349" y="45.096387" style="fill: #c0392b; stroke: #922b21; stroke-width: 0.4"/>
    </g>
   </g>
   <g id="line2d_24">
    <defs>
     <path id="m5ef136c260" d="M 2.5 0 
L -2.5 -0 
" style="stroke: #922b21; stroke-width: 0.4"/>
    </defs>
    <g clip-path="url(#pddf7014143)">
     <use xlink:href="#m5ef136c260" x="167.796958" y="53.275214" style="fill: #c0392b; stroke: #922b21; stroke-width: 0.4"/>
    </g>
   </g>
   <g id="line2d_25">
    <g clip-path="url(#pddf7014143)">
     <use xlink:href="#m5ef136c260" x="167.796958" y="36.91756" style="fill: #c0392b; stroke: #922b21; stroke-width: 0.4"/>
    </g>
   </g>
   <g id="LineCollection_7">
    <path d="M 76.628718 115.855717 
L 81.328777 115.855717 
" clip-path="url(#pddf7014143)" style="fill: none; stroke: #2e7d32; stroke-width: 0.6"/>
   </g>
   <g id="LineCollection_8">
    <path d="M 78.978747 118.98826 
L 78.978747 112.723174 
" clip-path="url(#pddf7014143)" style="fill: none; stroke: #2e7d32; stroke-width: 0.6"/>
   </g>
   <g id="line2d_26">
    <defs>
     <path id="m6a583f571a" d="M 0 2.5 
L 0 -2.5 
" style="stroke: #2e7d32; stroke-width: 0.5"/>
    </defs>
    <g clip-path="url(#pddf7014143)">
     <use xlink:href="#m6a583f571a" x="76.628718" y="115.855717" style="fill: #4caf50; stroke: #2e7d32; stroke-width: 0.5"/>
    </g>
   </g>
   <g id="line2d_27">
    <g clip-path="url(#pddf7014143)">
     <use xlink:href="#m6a583f571a" x="81.328777" y="115.855717" style="fill: #4caf50; stroke: #2e7d32; stroke-width: 0.5"/>
    </g>
   </g>
   <g id="line2d_28">
    <defs>
     <path id="m01a4daa947" d="M 2.5 0 
L -2.5 -0 
" style="stroke: #2e7d32; stroke-width: 0.5"/>
    </defs>
    <g clip-path="url(#pddf7014143)">
     <use xlink:href="#m01a4daa947" x="78.978747" y="118.98826" style="fill: #4caf50; stroke: #2e7d32; stroke-width: 0.5"/>
    </g>
   </g>
   <g id="line2d_29">
    <g clip-path="url(#pddf7014143)">
     <use xlink:href="#m01a4daa947" x="78.978747" y="112.723174" style="fill: #4caf50; stroke: #2e7d32; stroke-width: 0.5"/>
    </g>
   </g>
   <g id="LineCollection_9">
    <path d="M 54.288666 109.909363 
L 58.860811 109.909363 
" clip-path="url(#pddf7014143)" style="fill: none; stroke: #616161; stroke-width: 0.6"/>
   </g>
   <g id="LineCollection_10">
    <path d="M 56.574739 116.292205 
L 56.574739 103.52652 
" clip-path="url(#pddf7014143)" style="fill: none; stroke: #616161; stroke-width: 0.6"/>
   </g>
   <g id="line2d_30">
    <defs>
     <path id="m780d8d2af3" d="M 0 2.5 
L 0 -2.5 
" style="stroke: #616161; stroke-width: 0.5"/>
    </defs>
    <g clip-path="url(#pddf7014143)">
     <use xlink:href="#m780d8d2af3" x="54.288666" y="109.909363" style="fill: #9e9e9e; stroke: #616161; stroke-width: 0.5"/>
    </g>
   </g>
   <g id="line2d_31">
    <g clip-path="url(#pddf7014143)">
     <use xlink:href="#m780d8d2af3" x="58.860811" y="109.909363" style="fill: #9e9e9e; stroke: #616161; stroke-width: 0.5"/>
    </g>
   </g>
   <g id="line2d_32">
    <defs>
     <path id="mb14a843eb4" d="M 2.5 0 
L -2.5 -0 
" style="stroke: #616161; stroke-width: 0.5"/>
    </defs>
    <g clip-path="url(#pddf7014143)">
     <use xlink:href="#mb14a843eb4" x="56.574739" y="116.292205" style="fill: #9e9e9e; stroke: #616161; stroke-width: 0.5"/>
    </g>
   </g>
   <g id="line2d_33">
    <g clip-path="url(#pddf7014143)">
     <use xlink:href="#mb14a843eb4" x="56.574739" y="103.52652" style="fill: #9e9e9e; stroke: #616161; stroke-width: 0.5"/>
    </g>
   </g>
   <g id="LineCollection_11">
    <path d="M 49.839018 131.313079 
L 53.875727 131.313079 
" clip-path="url(#pddf7014143)" style="fill: none; stroke: #000000; stroke-width: 0.6"/>
   </g>
   <g id="LineCollection_12">
    <path d="M 51.857373 134.52918 
L 51.857373 128.096978 
" clip-path="url(#pddf7014143)" style="fill: none; stroke: #000000; stroke-width: 0.6"/>
   </g>
   <g id="line2d_34">
    <defs>
     <path id="m0d3056d9ad" d="M 0 2.5 
L 0 -2.5 
" style="stroke: #000000; stroke-width: 0.5"/>
    </defs>
    <g clip-path="url(#pddf7014143)">
     <use xlink:href="#m0d3056d9ad" x="49.839018" y="131.313079" style="fill: #212121; stroke: #000000; stroke-width: 0.5"/>
    </g>
   </g>
   <g id="line2d_35">
    <g clip-path="url(#pddf7014143)">
     <use xlink:href="#m0d3056d9ad" x="53.875727" y="131.313079" style="fill: #212121; stroke: #000000; stroke-width: 0.5"/>
    </g>
   </g>
   <g id="line2d_36">
    <defs>
     <path id="m3471e03ee6" d="M 2.5 0 
L -2.5 -0 
" style="stroke: #000000; stroke-width: 0.5"/>
    </defs>
    <g clip-path="url(#pddf7014143)">
     <use xlink:href="#m3471e03ee6" x="51.857373" y="134.52918" style="fill: #212121; stroke: #000000; stroke-width: 0.5"/>
    </g>
   </g>
   <g id="line2d_37">
    <g clip-path="url(#pddf7014143)">
     <use xlink:href="#m3471e03ee6" x="51.857373" y="128.096978" style="fill: #212121; stroke: #000000; stroke-width: 0.5"/>
    </g>
   </g>
   <g id="legend_1">
    <g id="LineCollection_13">
     <path d="M 41.45 21.056051 
L 47.95 21.056051 
" style="fill: none; stroke: #2e7d32; stroke-width: 0.6"/>
    </g>
    <g id="LineCollection_14">
     <path d="M 44.7 24.306051 
L 44.7 17.806051 
" style="fill: none; stroke: #2e7d32; stroke-width: 0.6"/>
    </g>
    <g id="line2d_38">
     <g>
      <use xlink:href="#m933ed8fd0d" x="41.45" y="21.056051" style="fill: #3a9e6f; stroke: #2e7d32; stroke-width: 0.4"/>
     </g>
    </g>
    <g id="line2d_39">
     <g>
      <use xlink:href="#m933ed8fd0d" x="47.95" y="21.056051" style="fill: #3a9e6f; stroke: #2e7d32; stroke-width: 0.4"/>
     </g>
    </g>
    <g id="line2d_40">
     <g>
      <use xlink:href="#mfd6b858327" x="44.7" y="24.306051" style="fill: #3a9e6f; stroke: #2e7d32; stroke-width: 0.4"/>
     </g>
    </g>
    <g id="line2d_41">
     <g>
      <use xlink:href="#mfd6b858327" x="44.7" y="17.806051" style="fill: #3a9e6f; stroke: #2e7d32; stroke-width: 0.4"/>
     </g>
    </g>
    <g id="line2d_42"/>
    <g id="line2d_43">
     <defs>
      <path id="ma035a79ae6" d="M 0 3 
C 0.795609 3 1.55874 2.683901 2.12132 2.12132 
C 2.683901 1.55874 3 0.795609 3 0 
C 3 -0.795609 2.683901 -1.55874 2.12132 -2.12132 
C 1.55874 -2.683901 0.795609 -3 0 -3 
C -0.795609 -3 -1.55874 -2.683901 -2.12132 -2.12132 
C -2.683901 -1.55874 -3 -0.795609 -3 0 
C -3 0.795609 -2.683901 1.55874 -2.12132 2.12132 
C -1.55874 2.683901 -0.795609 3 0 3 
z
" style="stroke: #ffffff; stroke-width: 0.4"/>
     </defs>
     <g>
      <use xlink:href="#ma035a79ae6" x="44.7" y="21.056051" style="fill: #3a9e6f; stroke: #ffffff; stroke-width: 0.4"/>
     </g>
    </g>
    <g id="text_17">
     <text style="font-size: 6.5px; font-family: 'Arial', 'Helvetica', 'DejaVu Sans', sans-serif; text-anchor: start" x="51.2" y="23.331051" transform="rotate(-0 51.2 23.331051)">Agar</text>
    </g>
    <g id="LineCollection_15">
     <path d="M 41.45 29.026676 
L 47.95 29.026676 
" style="fill: none; stroke: #2c5f9f; stroke-width: 0.6"/>
    </g>
    <g id="LineCollection_16">
     <path d="M 44.7 32.276676 
L 44.7 25.776676 
" style="fill: none; stroke: #2c5f9f; stroke-width: 0.6"/>
    </g>
    <g id="line2d_44">
     <g>
      <use xlink:href="#maf1e60a539" x="41.45" y="29.026676" style="fill: #3a6fbf; stroke: #2c5f9f; stroke-width: 0.4"/>
     </g>
    </g>
    <g id="line2d_45">
     <g>
      <use xlink:href="#maf1e60a539" x="47.95" y="29.026676" style="fill: #3a6fbf; stroke: #2c5f9f; stroke-width: 0.4"/>
     </g>
    </g>
    <g id="line2d_46">
     <g>
      <use xlink:href="#mc4d1b79312" x="44.7" y="32.276676" style="fill: #3a6fbf; stroke: #2c5f9f; stroke-width: 0.4"/>
     </g>
    </g>
    <g id="line2d_47">
     <g>
      <use xlink:href="#mc4d1b79312" x="44.7" y="25.776676" style="fill: #3a6fbf; stroke: #2c5f9f; stroke-width: 0.4"/>
     </g>
    </g>
    <g id="line2d_48"/>
    <g id="line2d_49">
     <defs>
      <path id="m1b283bc131" d="M 0 3 
C 0.795609 3 1.55874 2.683901 2.12132 2.12132 
C 2.683901 1.55874 3 0.795609 3 0 
C 3 -0.795609 2.683901 -1.55874 2.12132 -2.12132 
C 1.55874 -2.683901 0.795609 -3 0 -3 
C -0.795609 -3 -1.55874 -2.683901 -2.12132 -2.12132 
C -2.683901 -1.55874 -3 -0.795609 -3 0 
C -3 0.795609 -2.683901 1.55874 -2.12132 2.12132 
C -1.55874 2.683901 -0.795609 3 0 3 
z
" style="stroke: #ffffff; stroke-width: 0.4"/>
     </defs>
     <g>
      <use xlink:href="#m1b283bc131" x="44.7" y="29.026676" style="fill: #3a6fbf; stroke: #ffffff; stroke-width: 0.4"/>
     </g>
    </g>
    <g id="text_18">
     <text style="font-size: 6.5px; font-family: 'Arial', 'Helvetica', 'DejaVu Sans', sans-serif; text-anchor: start" x="51.2" y="31.301676" transform="rotate(-0 51.2 31.301676)">1:1</text>
    </g>
    <g id="LineCollection_17">
     <path d="M 41.45 36.921129 
L 47.95 36.921129 
" style="fill: none; stroke: #922b21; stroke-width: 0.6"/>
    </g>
    <g id="LineCollection_18">
     <path d="M 44.7 40.171129 
L 44.7 33.671129 
" style="fill: none; stroke: #922b21; stroke-width: 0.6"/>
    </g>
    <g id="line2d_50">
     <g>
      <use xlink:href="#mfb7fb97182" x="41.45" y="36.921129" style="fill: #c0392b; stroke: #922b21; stroke-width: 0.4"/>
     </g>
    </g>
    <g id="line2d_51">
     <g>
      <use xlink:href="#mfb7fb97182" x="47.95" y="36.921129" style="fill: #c0392b; stroke: #922b21; stroke-width: 0.4"/>
     </g>
    </g>
    <g id="line2d_52">
     <g>
      <use xlink:href="#m5ef136c260" x="44.7" y="40.171129" style="fill: #c0392b; stroke: #922b21; stroke-width: 0.4"/>
     </g>
    </g>
    <g id="line2d_53">
     <g>
      <use xlink:href="#m5ef136c260" x="44.7" y="33.671129" style="fill: #c0392b; stroke: #922b21; stroke-width: 0.4"/>
     </g>
    </g>
    <g id="line2d_54"/>
    <g id="line2d_55">
     <defs>
      <path id="mf634e72c60" d="M 0 3 
C 0.795609 3 1.55874 2.683901 2.12132 2.12132 
C 2.683901 1.55874 3 0.795609 3 0 
C 3 -0.795609 2.683901 -1.55874 2.12132 -2.12132 
C 1.55874 -2.683901 0.795609 -3 0 -3 
C -0.795609 -3 -1.55874 -2.683901 -2.12132 -2.12132 
C -2.683901 -1.55874 -3 -0.795609 -3 0 
C -3 0.795609 -2.683901 1.55874 -2.12132 2.12132 
C -1.55874 2.683901 -0.795609 3 0 3 
z
" style="stroke: #ffffff; stroke-width: 0.4"/>
     </defs>
     <g>
      <use xlink:href="#mf634e72c60" x="44.7" y="36.921129" style="fill: #c0392b; stroke: #ffffff; stroke-width: 0.4"/>
     </g>
    </g>
    <g id="text_19">
     <text style="font-size: 6.5px; font-family: 'Arial', 'Helvetica', 'DejaVu Sans', sans-serif; text-anchor: start" x="51.2" y="39.196129" transform="rotate(-0 51.2 39.196129)">2:1</text>
    </g>
    <g id="LineCollection_19">
     <path d="M 70.779219 21.056051 
L 77.279219 21.056051 
" style="fill: none; stroke: #2e7d32; stroke-width: 0.6"/>
    </g>
    <g id="LineCollection_20">
     <path d="M 74.029219 24.306051 
L 74.029219 17.806051 
" style="fill: none; stroke: #2e7d32; stroke-width: 0.6"/>
    </g>
    <g id="line2d_56">
     <g>
      <use xlink:href="#m6a583f571a" x="70.779219" y="21.056051" style="fill: #4caf50; stroke: #2e7d32; stroke-width: 0.5"/>
     </g>
    </g>
    <g id="line2d_57">
     <g>
      <use xlink:href="#m6a583f571a" x="77.279219" y="21.056051" style="fill: #4caf50; stroke: #2e7d32; stroke-width: 0.5"/>
     </g>
    </g>
    <g id="line2d_58">
     <g>
      <use xlink:href="#m01a4daa947" x="74.029219" y="24.306051" style="fill: #4caf50; stroke: #2e7d32; stroke-width: 0.5"/>
     </g>
    </g>
    <g id="line2d_59">
     <g>
      <use xlink:href="#m01a4daa947" x="74.029219" y="17.806051" style="fill: #4caf50; stroke: #2e7d32; stroke-width: 0.5"/>
     </g>
    </g>
    <g id="line2d_60"/>
    <g id="line2d_61">
     <defs>
      <path id="ma43014769f" d="M -0 3.535534 
L 3.535534 0 
L 0 -3.535534 
L -3.535534 -0 
z
" style="stroke: #2e7d32; stroke-width: 0.5; stroke-linejoin: miter"/>
     </defs>
     <g>
      <use xlink:href="#ma43014769f" x="74.029219" y="21.056051" style="fill: #4caf50; stroke: #2e7d32; stroke-width: 0.5; stroke-linejoin: miter"/>
     </g>
    </g>
    <g id="text_20">
     <text style="font-size: 6.5px; font-family: 'Arial', 'Helvetica', 'DejaVu Sans', sans-serif; text-anchor: start" x="80.529219" y="23.331051" transform="rotate(-0 80.529219 23.331051)">Green</text>
    </g>
    <g id="LineCollection_21">
     <path d="M 70.779219 28.950504 
L 77.279219 28.950504 
" style="fill: none; stroke: #616161; stroke-width: 0.6"/>
    </g>
    <g id="LineCollection_22">
     <path d="M 74.029219 32.200504 
L 74.029219 25.700504 
" style="fill: none; stroke: #616161; stroke-width: 0.6"/>
    </g>
    <g id="line2d_62">
     <g>
      <use xlink:href="#m780d8d2af3" x="70.779219" y="28.950504" style="fill: #9e9e9e; stroke: #616161; stroke-width: 0.5"/>
     </g>
    </g>
    <g id="line2d_63">
     <g>
      <use xlink:href="#m780d8d2af3" x="77.279219" y="28.950504" style="fill: #9e9e9e; stroke: #616161; stroke-width: 0.5"/>
     </g>
    </g>
    <g id="line2d_64">
     <g>
      <use xlink:href="#mb14a843eb4" x="74.029219" y="32.200504" style="fill: #9e9e9e; stroke: #616161; stroke-width: 0.5"/>
     </g>
    </g>
    <g id="line2d_65">
     <g>
      <use xlink:href="#mb14a843eb4" x="74.029219" y="25.700504" style="fill: #9e9e9e; stroke: #616161; stroke-width: 0.5"/>
     </g>
    </g>
    <g id="line2d_66"/>
    <g id="line2d_67">
     <defs>
      <path id="mf97e823971" d="M -0 3.535534 
L 3.535534 0 
L 0 -3.535534 
L -3.535534 -0 
z
" style="stroke: #616161; stroke-width: 0.5; stroke-linejoin: miter"/>
     </defs>
     <g>
      <use xlink:href="#mf97e823971" x="74.029219" y="28.950504" style="fill: #9e9e9e; stroke: #616161; stroke-width: 0.5; stroke-linejoin: miter"/>
     </g>
    </g>
    <g id="text_21">
     <text style="font-size: 6.5px; font-family: 'Arial', 'Helvetica', 'DejaVu Sans', sans-serif; text-anchor: start" x="80.529219" y="31.225504" transform="rotate(-0 80.529219 31.225504)">White</text>
    </g>
    <g id="LineCollection_23">
     <path d="M 70.779219 36.844957 
L 77.279219 36.844957 
" style="fill: none; stroke: #000000; stroke-width: 0.6"/>
    </g>
    <g id="LineCollection_24">
     <path d="M 74.029219 40.094957 
L 74.029219 33.594957 
" style="fill: none; stroke: #000000; stroke-width: 0.6"/>
    </g>
    <g id="line2d_68">
     <g>
      <use xlink:href="#m0d3056d9ad" x="70.779219" y="36.844957" style="fill: #212121; stroke: #000000; stroke-width: 0.5"/>
     </g>
    </g>
    <g id="line2d_69">
     <g>
      <use xlink:href="#m0d3056d9ad" x="77.279219" y="36.844957" style="fill: #212121; stroke: #000000; stroke-width: 0.5"/>
     </g>
    </g>
    <g id="line2d_70">
     <g>
      <use xlink:href="#m3471e03ee6" x="74.029219" y="40.094957" style="fill: #212121; stroke: #000000; stroke-width: 0.5"/>
     </g>
    </g>
    <g id="line2d_71">
     <g>
      <use xlink:href="#m3471e03ee6" x="74.029219" y="33.594957" style="fill: #212121; stroke: #000000; stroke-width: 0.5"/>
     </g>
    </g>
    <g id="line2d_72"/>
    <g id="line2d_73">
     <defs>
      <path id="m114b342c64" d="M -0 3.535534 
L 3.535534 0 
L 0 -3.535534 
L -3.535534 -0 
z
" style="stroke: #000000; stroke-width: 0.5; stroke-linejoin: miter"/>
     </defs>
     <g>
      <use xlink:href="#m114b342c64" x="74.029219" y="36.844957" style="fill: #212121; stroke: #000000; stroke-width: 0.5; stroke-linejoin: miter"/>
     </g>
    </g>
    <g id="text_22">
     <text style="font-size: 6.5px; font-family: 'Arial', 'Helvetica', 'DejaVu Sans', sans-serif; text-anchor: start" x="80.529219" y="39.119957" transform="rotate(-0 80.529219 39.119957)">Black</text>
    </g>
   </g>
   <g id="line2d_74">
    <g clip-path="url(#pddf7014143)">
     <use xlink:href="#ma035a79ae6" x="51.506392" y="138.753395" style="fill: #3a9e6f; stroke: #ffffff; stroke-width: 0.4"/>
    </g>
   </g>
   <g id="line2d_75">
    <g clip-path="url(#pddf7014143)">
     <use xlink:href="#m1b283bc131" x="95.361969" y="87.537371" style="fill: #3a6fbf; stroke: #ffffff; stroke-width: 0.4"/>
    </g>
   </g>
   <g id="line2d_76">
    <g clip-path="url(#pddf7014143)">
     <use xlink:href="#mf634e72c60" x="167.796958" y="45.096387" style="fill: #c0392b; stroke: #ffffff; stroke-width: 0.4"/>
    </g>
   </g>
   <g id="line2d_77">
    <g clip-path="url(#pddf7014143)">
     <use xlink:href="#ma43014769f" x="78.978747" y="115.855717" style="fill: #4caf50; stroke: #2e7d32; stroke-width: 0.5; stroke-linejoin: miter"/>
    </g>
   </g>
   <g id="line2d_78">
    <g clip-path="url(#pddf7014143)">
     <use xlink:href="#mf97e823971" x="56.574739" y="109.909363" style="fill: #9e9e9e; stroke: #616161; stroke-width: 0.5; stroke-linejoin: miter"/>
    </g>
   </g>
   <g id="line2d_79">
    <g clip-path="url(#pddf7014143)">
     <use xlink:href="#m114b342c64" x="51.857373" y="131.313079" style="fill: #212121; stroke: #000000; stroke-width: 0.5; stroke-linejoin: miter"/>
    </g>
   </g>
  </g>
 </g>
 <defs>
  <clipPath id="pddf7014143">
   <rect x="34.95" y="12.828472" width="170.07874" height="140.711811"/>
  </clipPath>
 </defs>
</svg>
