<?xml version="1.0" encoding="utf-8" standalone="no"?>
<!DOCTYPE svg PUBLIC "-//W3C//DTD SVG 1.1//EN"
  "http://www.w3.org/Graphics/SVG/1.1/DTD/svg11.dtd">
<svg xmlns:xlink="http://www.w3.org/1999/xlink" width="227.530684pt" height="221.896548pt" viewBox="0 0 227.530684 221.896548" xmlns="http://www.w3.org/2000/svg" version="1.1">
 <metadata>
  <rdf:RDF xmlns:dc="http://purl.org/dc/elements/1.1/" xmlns:cc="http://creativecommons.org/ns#" xmlns:rdf="http://www.w3.org/1999/02/22-rdf-syntax-ns#">
   <cc:Work>
    <dc:type rdf:resource="http://purl.org/dc/dcmitype/StillImage"/>
    <dc:date>2026-03-10T03:03:56.979773</dc:date>
    <dc:format>image/svg+xml</dc:format>
    <dc:creator>
     <cc:Agent>
      <dc:title>Matplotlib v3.10.8, https://matplotlib.org/</dc:title>
     </cc:Agent>
    </dc:creator>
   </cc:Work>
  </rdf:RDF>
 </metadata>
 <defs>
  <style type="text/css">*{stroke-linejoin: round; stroke-linecap: butt}</style>
 </defs>
 <g id="figure_1">
  <g id="patch_1">
   <path d="M 0 221.896548 
L 227.530684 221.896548 
L 227.530684 0 
L 0 0 
z
" style="fill: #ffffff"/>
  </g>
  <g id="axes_1">
   <g id="patch_2">
    <path d="M 34.803125 190.31811 
L 220.330684 190.31811 
L 220.330684 7.2 
L 34.803125 7.2 
z
" style="fill: #ffffff"/>
   </g>
   <g id="FillBetweenPolyCollection_1">
    <defs>
     <path id="m80d3e0cb53" d="M 34.803125 -205.976638 
L 34.803125 -205.976638 
L 41.942233 -205.976638 
L 41.942233 -204.362701 
L 43.72701 -204.362701 
L 43.72701 -203.496936 
L 45.511786 -203.496936 
L 45.511786 -202.766521 
L 47.296563 -202.766521 
L 47.296563 -201.771727 
L 49.08134 -201.771727 
L 49.08134 -200.693222 
L 50.866117 -200.693222 
L 50.866117 -199.949655 
L 52.650894 -199.949655 
L 52.650894 -197.70977 
L 54.435671 -197.70977 
L 54.435671 -196.937465 
L 56.220448 -196.937465 
L 56.220448 -195.405849 
L 58.005225 -195.405849 
L 58.005225 -194.115716 
L 59.790002 -194.115716 
L 59.790002 -192.371557 
L 61.574779 -192.371557 
L 61.574779 -190.411551 
L 63.359555 -190.411551 
L 63.359555 -187.965592 
L 65.144332 -187.965592 
L 65.144332 -186.023384 
L 66.929109 -186.023384 
L 66.929109 -184.452019 
L 68.713886 -184.452019 
L 68.713886 -182.250782 
L 70.498663 -182.250782 
L 70.498663 -179.804703 
L 72.28344 -179.804703 
L 72.28344 -178.13849 
L 74.068217 -178.13849 
L 74.068217 -176.466935 
L 75.852994 -176.466935 
L 75.852994 -173.970297 
L 77.637771 -173.970297 
L 77.637771 -171.898487 
L 79.422548 -171.898487 
L 79.422548 -170.383151 
L 81.207324 -170.383151 
L 81.207324 -167.515429 
L 82.992101 -167.515429 
L 82.992101 -164.661077 
L 84.776878 -164.661077 
L 84.776878 -160.734322 
L 86.561655 -160.734322 
L 86.561655 -158.291968 
L 88.346432 -158.291968 
L 88.346432 -155.048135 
L 90.131209 -155.048135 
L 90.131209 -151.958709 
L 91.915986 -151.958709 
L 91.915986 -149.393579 
L 93.700763 -149.393579 
L 93.700763 -146.836355 
L 95.48554 -146.836355 
L 95.48554 -143.616632 
L 97.270317 -143.616632 
L 97.270317 -140.053235 
L 99.055094 -140.053235 
L 99.055094 -137.921856 
L 100.83987 -137.921856 
L 100.83987 -135.049735 
L 102.624647 -135.049735 
L 102.624647 -132.758859 
L 104.409424 -132.758859 
L 104.409424 -130.663979 
L 106.194201 -130.663979 
L 106.194201 -126.620389 
L 107.978978 -126.620389 
L 107.978978 -124.002025 
L 109.763755 -124.002025 
L 109.763755 -120.789688 
L 111.548532 -120.789688 
L 111.548532 -118.275223 
L 113.333309 -118.275223 
L 113.333309 -113.267324 
L 115.118086 -113.267324 
L 115.118086 -110.358547 
L 116.902863 -110.358547 
L 116.902863 -105.075893 
L 118.687639 -105.075893 
L 118.687639 -100.698188 
L 120.472416 -100.698188 
L 120.472416 -97.646771 
L 122.257193 -97.646771 
L 122.257193 -94.677149 
L 124.04197 -94.677149 
L 124.04197 -92.400301 
L 125.826747 -92.400301 
L 125.826747 -88.318332 
L 127.611524 -88.318332 
L 127.611524 -83.468118 
L 129.396301 -83.468118 
L 129.396301 -78.421421 
L 131.181078 -78.421421 
L 131.181078 -74.319462 
L 132.965855 -74.319462 
L 132.965855 -71.078547 
L 134.750632 -71.078547 
L 134.750632 -67.625689 
L 136.535408 -67.625689 
L 136.535408 -64.878779 
L 138.320185 -64.878779 
L 138.320185 -62.600759 
L 140.104962 -62.600759 
L 140.104962 -60.33342 
L 141.889739 -60.33342 
L 141.889739 -56.72971 
L 143.674516 -56.72971 
L 143.674516 -53.127455 
L 145.459293 -53.127455 
L 145.459293 -50.00767 
L 147.24407 -50.00767 
L 147.24407 -48.020402 
L 149.028847 -48.020402 
L 149.028847 -45.831742 
L 150.813624 -45.831742 
L 150.813624 -42.808548 
L 152.598401 -42.808548 
L 152.598401 -39.846637 
L 154.383177 -39.846637 
L 154.383177 -38.601834 
L 156.167954 -38.601834 
L 156.167954 -36.771794 
L 157.952731 -36.771794 
L 157.952731 -35.584362 
L 159.737508 -35.584362 
L 159.737508 -34.433606 
L 161.522285 -34.433606 
L 161.522285 -33.876938 
L 163.307062 -33.876938 
L 163.307062 -33.161959 
L 165.091839 -33.161959 
L 165.091839 -32.654429 
L 166.876616 -32.654429 
L 166.876616 -32.336076 
L 168.661393 -32.336076 
L 168.661393 -31.784371 
L 170.44617 -31.784371 
L 170.44617 -31.679499 
L 172.230947 -31.679499 
L 172.230947 -31.603004 
L 174.015723 -31.603004 
L 174.015723 -31.578438 
L 174.015723 -31.578438 
L 174.015723 -31.578438 
L 174.015723 -32.885358 
L 172.230947 -32.885358 
L 172.230947 -33.226914 
L 170.44617 -33.226914 
L 170.44617 -33.576732 
L 168.661393 -33.576732 
L 168.661393 -34.89893 
L 166.876616 -34.89893 
L 166.876616 -35.526095 
L 165.091839 -35.526095 
L 165.091839 -36.440412 
L 163.307062 -36.440412 
L 163.307062 -37.624887 
L 161.522285 -37.624887 
L 161.522285 -38.494474 
L 159.737508 -38.494474 
L 159.737508 -40.198927 
L 157.952731 -40.198927 
L 157.952731 -41.869127 
L 156.167954 -41.869127 
L 156.167954 -44.328522 
L 154.383177 -44.328522 
L 154.383177 -45.944781 
L 152.598401 -45.944781 
L 152.598401 -49.66187 
L 150.813624 -49.66187 
L 150.813624 -53.32099 
L 149.028847 -53.32099 
L 149.028847 -55.906963 
L 147.24407 -55.906963 
L 147.24407 -58.217788 
L 145.459293 -58.217788 
L 145.459293 -61.78544 
L 143.674516 -61.78544 
L 143.674516 -65.827945 
L 141.889739 -65.827945 
L 141.889739 -69.809572 
L 140.104962 -69.809572 
L 140.104962 -72.283892 
L 138.320185 -72.283892 
L 138.320185 -74.748131 
L 136.535408 -74.748131 
L 136.535408 -77.692699 
L 134.750632 -77.692699 
L 134.750632 -81.355333 
L 132.965855 -81.355333 
L 132.965855 -84.756674 
L 131.181078 -84.756674 
L 131.181078 -89.029949 
L 129.396301 -89.029949 
L 129.396301 -94.221806 
L 127.611524 -94.221806 
L 127.611524 -99.147044 
L 125.826747 -99.147044 
L 125.826747 -103.260977 
L 124.04197 -103.260977 
L 124.04197 -105.538087 
L 122.257193 -105.538087 
L 122.257193 -108.489373 
L 120.472416 -108.489373 
L 120.472416 -111.523362 
L 118.687639 -111.523362 
L 118.687639 -115.840531 
L 116.902863 -115.840531 
L 116.902863 -120.994171 
L 115.118086 -120.994171 
L 115.118086 -123.83144 
L 113.333309 -123.83144 
L 113.333309 -128.67571 
L 111.548532 -128.67571 
L 111.548532 -131.088271 
L 109.763755 -131.088271 
L 109.763755 -134.171232 
L 107.978978 -134.171232 
L 107.978978 -136.668559 
L 106.194201 -136.668559 
L 106.194201 -140.496752 
L 104.409424 -140.496752 
L 104.409424 -142.483884 
L 102.624647 -142.483884 
L 102.624647 -144.646641 
L 100.83987 -144.646641 
L 100.83987 -147.342414 
L 99.055094 -147.342414 
L 99.055094 -149.353074 
L 97.270317 -149.353074 
L 97.270317 -152.694104 
L 95.48554 -152.694104 
L 95.48554 -155.689629 
L 93.700763 -155.689629 
L 93.700763 -158.06938 
L 91.915986 -158.06938 
L 91.915986 -160.442022 
L 90.131209 -160.442022 
L 90.131209 -163.27914 
L 88.346432 -163.27914 
L 88.346432 -166.258583 
L 86.561655 -166.258583 
L 86.561655 -168.484716 
L 84.776878 -168.484716 
L 84.776878 -172.02981 
L 82.992101 -172.02981 
L 82.992101 -174.613078 
L 81.207324 -174.613078 
L 81.207324 -177.18452 
L 79.422548 -177.18452 
L 79.422548 -178.532658 
L 77.637771 -178.532658 
L 77.637771 -180.390036 
L 75.852994 -180.390036 
L 75.852994 -182.609562 
L 74.068217 -182.609562 
L 74.068217 -184.082971 
L 72.28344 -184.082971 
L 72.28344 -185.560537 
L 70.498663 -185.560537 
L 70.498663 -187.710286 
L 68.713886 -187.710286 
L 68.713886 -189.622524 
L 66.929109 -189.622524 
L 66.929109 -190.989644 
L 65.144332 -190.989644 
L 65.144332 -192.662319 
L 63.359555 -192.662319 
L 63.359555 -194.736978 
L 61.574779 -194.736978 
L 61.574779 -196.389829 
L 59.790002 -196.389829 
L 59.790002 -197.834961 
L 58.005225 -197.834961 
L 58.005225 -198.884987 
L 56.220448 -198.884987 
L 56.220448 -200.127566 
L 54.435671 -200.127566 
L 54.435671 -200.742887 
L 52.650894 -200.742887 
L 52.650894 -202.471313 
L 50.866117 -202.471313 
L 50.866117 -203.031986 
L 49.08134 -203.031986 
L 49.08134 -203.817863 
L 47.296563 -203.817863 
L 47.296563 -204.503561 
L 45.511786 -204.503561 
L 45.511786 -204.988062 
L 43.72701 -204.988062 
L 43.72701 -205.507855 
L 41.942233 -205.507855 
L 41.942233 -205.976638 
L 34.803125 -205.976638 
z
" style="stroke: #1a237e; stroke-opacity: 0.18"/>
    </defs>
    <g clip-path="url(#p0a682f4029)">
     <use xlink:href="#m80d3e0cb53" x="0" y="221.896548" style="fill: #1a237e; fill-opacity: 0.18; stroke: #1a237e; stroke-opacity: 0.18"/>
    </g>
   </g>
   <g id="FillBetweenPolyCollection_2">
    <defs>
     <path id="ma613f3b4ac" d="M 34.803125 -205.976638 
L 34.803125 -205.976638 
L 41.942233 -205.976638 
L 41.942233 -205.617991 
L 43.72701 -205.617991 
L 43.72701 -205.506728 
L 45.511786 -205.506728 
L 45.511786 -205.438256 
L 49.08134 -205.438256 
L 49.08134 -205.356612 
L 50.866117 -205.356612 
L 50.866117 -205.200875 
L 56.220448 -205.200875 
L 56.220448 -205.200875 
L 58.005225 -205.200875 
L 58.005225 -205.095382 
L 59.790002 -205.095382 
L 59.790002 -204.525609 
L 61.574779 -204.525609 
L 61.574779 -204.347334 
L 63.359555 -204.347334 
L 63.359555 -203.760801 
L 65.144332 -203.760801 
L 65.144332 -203.38408 
L 66.929109 -203.38408 
L 66.929109 -203.014592 
L 68.713886 -203.014592 
L 68.713886 -202.389269 
L 70.498663 -202.389269 
L 70.498663 -201.77807 
L 72.28344 -201.77807 
L 72.28344 -200.386337 
L 74.068217 -200.386337 
L 74.068217 -199.168888 
L 75.852994 -199.168888 
L 75.852994 -197.86417 
L 77.637771 -197.86417 
L 77.637771 -196.897177 
L 79.422548 -196.897177 
L 79.422548 -195.46323 
L 81.207324 -195.46323 
L 81.207324 -193.691839 
L 82.992101 -193.691839 
L 82.992101 -192.638261 
L 84.776878 -192.638261 
L 84.776878 -190.792926 
L 86.561655 -190.792926 
L 86.561655 -188.965042 
L 88.346432 -188.965042 
L 88.346432 -188.186082 
L 90.131209 -188.186082 
L 90.131209 -186.877512 
L 91.915986 -186.877512 
L 91.915986 -184.137397 
L 93.700763 -184.137397 
L 93.700763 -181.279488 
L 95.48554 -181.279488 
L 95.48554 -179.259976 
L 97.270317 -179.259976 
L 97.270317 -176.943388 
L 99.055094 -176.943388 
L 99.055094 -174.333006 
L 100.83987 -174.333006 
L 100.83987 -172.160834 
L 102.624647 -172.160834 
L 102.624647 -169.832778 
L 104.409424 -169.832778 
L 104.409424 -166.689549 
L 106.194201 -166.689549 
L 106.194201 -164.708881 
L 107.978978 -164.708881 
L 107.978978 -162.914429 
L 109.763755 -162.914429 
L 109.763755 -160.768198 
L 111.548532 -160.768198 
L 111.548532 -158.859093 
L 113.333309 -158.859093 
L 113.333309 -155.437548 
L 115.118086 -155.437548 
L 115.118086 -151.655959 
L 116.902863 -151.655959 
L 116.902863 -148.639209 
L 118.687639 -148.639209 
L 118.687639 -144.029699 
L 120.472416 -144.029699 
L 120.472416 -140.241824 
L 122.257193 -140.241824 
L 122.257193 -136.76102 
L 124.04197 -136.76102 
L 124.04197 -133.709194 
L 125.826747 -133.709194 
L 125.826747 -127.638888 
L 127.611524 -127.638888 
L 127.611524 -125.83545 
L 129.396301 -125.83545 
L 129.396301 -121.791564 
L 131.181078 -121.791564 
L 131.181078 -119.776558 
L 132.965855 -119.776558 
L 132.965855 -115.760269 
L 134.750632 -115.760269 
L 134.750632 -111.997552 
L 136.535408 -111.997552 
L 136.535408 -109.177986 
L 138.320185 -109.177986 
L 138.320185 -106.762648 
L 140.104962 -106.762648 
L 140.104962 -101.7128 
L 141.889739 -101.7128 
L 141.889739 -96.45436 
L 143.674516 -96.45436 
L 143.674516 -92.579799 
L 145.459293 -92.579799 
L 145.459293 -88.708392 
L 147.24407 -88.708392 
L 147.24407 -84.855798 
L 149.028847 -84.855798 
L 149.028847 -81.261408 
L 150.813624 -81.261408 
L 150.813624 -78.160277 
L 152.598401 -78.160277 
L 152.598401 -74.125325 
L 154.383177 -74.125325 
L 154.383177 -69.879521 
L 156.167954 -69.879521 
L 156.167954 -66.597346 
L 157.952731 -66.597346 
L 157.952731 -63.101828 
L 159.737508 -63.101828 
L 159.737508 -59.630124 
L 161.522285 -59.630124 
L 161.522285 -56.184903 
L 163.307062 -56.184903 
L 163.307062 -53.450166 
L 165.091839 -53.450166 
L 165.091839 -51.187645 
L 166.876616 -51.187645 
L 166.876616 -49.838089 
L 168.661393 -49.838089 
L 168.661393 -47.159169 
L 170.44617 -47.159169 
L 170.44617 -45.170155 
L 172.230947 -45.170155 
L 172.230947 -41.902536 
L 175.8005 -41.902536 
L 175.8005 -40.190131 
L 177.585277 -40.190131 
L 177.585277 -38.714024 
L 179.370054 -38.714024 
L 179.370054 -37.264046 
L 181.154831 -37.264046 
L 181.154831 -36.047969 
L 182.939608 -36.047969 
L 182.939608 -34.672022 
L 184.724385 -34.672022 
L 184.724385 -33.366224 
L 186.509162 -33.366224 
L 186.509162 -32.348673 
L 188.293939 -32.348673 
L 188.293939 -31.912254 
L 190.078716 -31.912254 
L 190.078716 -31.787797 
L 191.863492 -31.787797 
L 191.863492 -31.603404 
L 193.648269 -31.603404 
L 193.648269 -31.578438 
L 193.648269 -31.578438 
L 193.648269 -31.578438 
L 193.648269 -32.907544 
L 191.863492 -32.907544 
L 191.863492 -33.611544 
L 190.078716 -33.611544 
L 190.078716 -33.959402 
L 188.293939 -33.959402 
L 188.293939 -34.957741 
L 186.509162 -34.957741 
L 186.509162 -36.832342 
L 184.724385 -36.832342 
L 184.724385 -38.912101 
L 182.939608 -38.912101 
L 182.939608 -40.926842 
L 181.154831 -40.926842 
L 181.154831 -42.619429 
L 179.370054 -42.619429 
L 179.370054 -44.564757 
L 177.585277 -44.564757 
L 177.585277 -46.485443 
L 175.8005 -46.485443 
L 175.8005 -48.656478 
L 172.230947 -48.656478 
L 172.230947 -52.673308 
L 170.44617 -52.673308 
L 170.44617 -55.056422 
L 168.661393 -55.056422 
L 168.661393 -58.208358 
L 166.876616 -58.208358 
L 166.876616 -59.774733 
L 165.091839 -59.774733 
L 165.091839 -62.372752 
L 163.307062 -62.372752 
L 163.307062 -65.471637 
L 161.522285 -65.471637 
L 161.522285 -69.319772 
L 159.737508 -69.319772 
L 159.737508 -73.14275 
L 157.952731 -73.14275 
L 157.952731 -76.943129 
L 156.167954 -76.943129 
L 156.167954 -80.471486 
L 154.383177 -80.471486 
L 154.383177 -84.983476 
L 152.598401 -84.983476 
L 152.598401 -89.22118 
L 150.813624 -89.22118 
L 150.813624 -92.447113 
L 149.028847 -92.447113 
L 149.028847 -96.154177 
L 147.24407 -96.154177 
L 147.24407 -100.091 
L 145.459293 -100.091 
L 145.459293 -104.010299 
L 143.674516 -104.010299 
L 143.674516 -107.899334 
L 141.889739 -107.899334 
L 141.889739 -113.136919 
L 140.104962 -113.136919 
L 140.104962 -118.10841 
L 138.320185 -118.10841 
L 138.320185 -120.466043 
L 136.535408 -120.466043 
L 136.535408 -123.214499 
L 134.750632 -123.214499 
L 134.750632 -126.857013 
L 132.965855 -126.857013 
L 132.965855 -130.710506 
L 131.181078 -130.710506 
L 131.181078 -132.646781 
L 129.396301 -132.646781 
L 129.396301 -136.506753 
L 127.611524 -136.506753 
L 127.611524 -138.216743 
L 125.826747 -138.216743 
L 125.826747 -143.957751 
L 124.04197 -143.957751 
L 124.04197 -146.813305 
L 122.257193 -146.813305 
L 122.257193 -150.046678 
L 120.472416 -150.046678 
L 120.472416 -153.581173 
L 118.687639 -153.581173 
L 118.687639 -157.838181 
L 116.902863 -157.838181 
L 116.902863 -160.596585 
L 115.118086 -160.596585 
L 115.118086 -164.055938 
L 113.333309 -164.055938 
L 113.333309 -167.153444 
L 111.548532 -167.153444 
L 111.548532 -168.86712 
L 109.763755 -168.86712 
L 109.763755 -170.80123 
L 107.978978 -170.80123 
L 107.978978 -172.407832 
L 106.194201 -172.407832 
L 106.194201 -174.169255 
L 104.409424 -174.169255 
L 104.409424 -176.97769 
L 102.624647 -176.97769 
L 102.624647 -179.036649 
L 100.83987 -179.036649 
L 100.83987 -180.939635 
L 99.055094 -180.939635 
L 99.055094 -183.23566 
L 97.270317 -183.23566 
L 97.270317 -185.250116 
L 95.48554 -185.250116 
L 95.48554 -186.986008 
L 93.700763 -186.986008 
L 93.700763 -189.446134 
L 91.915986 -189.446134 
L 91.915986 -191.762139 
L 90.131209 -191.762139 
L 90.131209 -192.850494 
L 88.346432 -192.850494 
L 88.346432 -193.506953 
L 86.561655 -193.506953 
L 86.561655 -195.03005 
L 84.776878 -195.03005 
L 84.776878 -196.538884 
L 82.992101 -196.538884 
L 82.992101 -197.407818 
L 81.207324 -197.407818 
L 81.207324 -198.843108 
L 79.422548 -198.843108 
L 79.422548 -199.976221 
L 77.637771 -199.976221 
L 77.637771 -200.743404 
L 75.852994 -200.743404 
L 75.852994 -201.753581 
L 74.068217 -201.753581 
L 74.068217 -202.66272 
L 72.28344 -202.66272 
L 72.28344 -203.687407 
L 70.498663 -203.687407 
L 70.498663 -204.114975 
L 68.713886 -204.114975 
L 68.713886 -204.5324 
L 66.929109 -204.5324 
L 66.929109 -204.77957 
L 65.144332 -204.77957 
L 65.144332 -205.021199 
L 63.359555 -205.021199 
L 63.359555 -205.368924 
L 61.574779 -205.368924 
L 61.574779 -205.471524 
L 59.790002 -205.471524 
L 59.790002 -205.757673 
L 58.005225 -205.757673 
L 58.005225 -205.800353 
L 56.220448 -205.800353 
L 56.220448 -205.800353 
L 50.866117 -205.800353 
L 50.866117 -205.869225 
L 49.08134 -205.869225 
L 49.08134 -205.900699 
L 45.511786 -205.900699 
L 45.511786 -205.927699 
L 43.72701 -205.927699 
L 43.72701 -205.969514 
L 41.942233 -205.969514 
L 41.942233 -205.976638 
L 34.803125 -205.976638 
z
" style="stroke: #7b1fa2; stroke-opacity: 0.18"/>
    </defs>
    <g clip-path="url(#p0a682f4029)">
     <use xlink:href="#ma613f3b4ac" x="0" y="221.896548" style="fill: #7b1fa2; fill-opacity: 0.18; stroke: #7b1fa2; stroke-opacity: 0.18"/>
    </g>
   </g>
   <g id="FillBetweenPolyCollection_3">
    <defs>
     <path id="m39435b141e" d="M 34.803125 -205.976638 
L 34.803125 -205.976638 
L 43.72701 -205.976638 
L 43.72701 -205.575976 
L 45.511786 -205.575976 
L 45.511786 -205.575976 
L 50.866117 -205.575976 
L 50.866117 -205.575976 
L 54.435671 -205.575976 
L 54.435671 -205.461435 
L 56.220448 -205.461435 
L 56.220448 -205.461435 
L 59.790002 -205.461435 
L 59.790002 -205.322704 
L 61.574779 -205.322704 
L 61.574779 -205.322704 
L 66.929109 -205.322704 
L 66.929109 -205.167016 
L 68.713886 -205.167016 
L 68.713886 -204.995461 
L 70.498663 -204.995461 
L 70.498663 -204.1323 
L 72.28344 -204.1323 
L 72.28344 -203.479244 
L 74.068217 -203.479244 
L 74.068217 -203.177668 
L 75.852994 -203.177668 
L 75.852994 -202.736305 
L 77.637771 -202.736305 
L 77.637771 -202.0208 
L 79.422548 -202.0208 
L 79.422548 -201.856866 
L 81.207324 -201.856866 
L 81.207324 -200.735914 
L 82.992101 -200.735914 
L 82.992101 -200.422175 
L 84.776878 -200.422175 
L 84.776878 -199.895765 
L 86.561655 -199.895765 
L 86.561655 -198.689825 
L 88.346432 -198.689825 
L 88.346432 -197.843609 
L 90.131209 -197.843609 
L 90.131209 -196.354329 
L 91.915986 -196.354329 
L 91.915986 -194.709806 
L 93.700763 -194.709806 
L 93.700763 -192.909992 
L 95.48554 -192.909992 
L 95.48554 -191.325579 
L 97.270317 -191.325579 
L 97.270317 -188.784809 
L 99.055094 -188.784809 
L 99.055094 -186.660143 
L 100.83987 -186.660143 
L 100.83987 -184.764963 
L 102.624647 -184.764963 
L 102.624647 -181.016245 
L 104.409424 -181.016245 
L 104.409424 -178.747339 
L 106.194201 -178.747339 
L 106.194201 -175.319307 
L 107.978978 -175.319307 
L 107.978978 -172.825674 
L 109.763755 -172.825674 
L 109.763755 -171.021362 
L 111.548532 -171.021362 
L 111.548532 -166.745511 
L 113.333309 -166.745511 
L 113.333309 -163.503042 
L 115.118086 -163.503042 
L 115.118086 -162.013473 
L 116.902863 -162.013473 
L 116.902863 -159.31004 
L 118.687639 -159.31004 
L 118.687639 -155.548726 
L 120.472416 -155.548726 
L 120.472416 -152.610585 
L 122.257193 -152.610585 
L 122.257193 -150.300328 
L 124.04197 -150.300328 
L 124.04197 -147.13858 
L 125.826747 -147.13858 
L 125.826747 -143.137268 
L 127.611524 -143.137268 
L 127.611524 -141.044405 
L 129.396301 -141.044405 
L 129.396301 -136.878301 
L 131.181078 -136.878301 
L 131.181078 -133.622069 
L 132.965855 -133.622069 
L 132.965855 -129.338311 
L 134.750632 -129.338311 
L 134.750632 -125.989773 
L 136.535408 -125.989773 
L 136.535408 -122.958141 
L 138.320185 -122.958141 
L 138.320185 -120.137374 
L 140.104962 -120.137374 
L 140.104962 -117.015245 
L 141.889739 -117.015245 
L 141.889739 -113.905408 
L 143.674516 -113.905408 
L 143.674516 -109.245592 
L 145.459293 -109.245592 
L 145.459293 -107.381717 
L 147.24407 -107.381717 
L 147.24407 -103.666702 
L 149.028847 -103.666702 
L 149.028847 -100.891479 
L 150.813624 -100.891479 
L 150.813624 -98.113411 
L 152.598401 -98.113411 
L 152.598401 -94.730978 
L 154.383177 -94.730978 
L 154.383177 -88.617965 
L 156.167954 -88.617965 
L 156.167954 -85.579601 
L 157.952731 -85.579601 
L 157.952731 -80.443048 
L 159.737508 -80.443048 
L 159.737508 -77.738824 
L 161.522285 -77.738824 
L 161.522285 -75.045519 
L 163.307062 -75.045519 
L 163.307062 -72.066299 
L 165.091839 -72.066299 
L 165.091839 -70.582167 
L 166.876616 -70.582167 
L 166.876616 -68.510774 
L 168.661393 -68.510774 
L 168.661393 -65.271541 
L 170.44617 -65.271541 
L 170.44617 -64.098678 
L 172.230947 -64.098678 
L 172.230947 -61.761507 
L 174.015723 -61.761507 
L 174.015723 -57.989773 
L 175.8005 -57.989773 
L 175.8005 -54.826444 
L 177.585277 -54.826444 
L 177.585277 -52.260027 
L 179.370054 -52.260027 
L 179.370054 -50.561282 
L 181.154831 -50.561282 
L 181.154831 -48.03384 
L 182.939608 -48.03384 
L 182.939608 -44.434946 
L 184.724385 -44.434946 
L 184.724385 -42.257905 
L 186.509162 -42.257905 
L 186.509162 -39.589477 
L 188.293939 -39.589477 
L 188.293939 -37.001957 
L 190.078716 -37.001957 
L 190.078716 -35.998754 
L 191.863492 -35.998754 
L 191.863492 -35.262468 
L 193.648269 -35.262468 
L 193.648269 -34.075978 
L 195.433046 -34.075978 
L 195.433046 -33.178974 
L 197.217823 -33.178974 
L 197.217823 -32.359543 
L 199.0026 -32.359543 
L 199.0026 -31.84291 
L 200.787377 -31.84291 
L 200.787377 -31.609736 
L 204.356931 -31.609736 
L 204.356931 -31.578438 
L 204.356931 -31.578438 
L 204.356931 -31.578438 
L 204.356931 -33.251082 
L 200.787377 -33.251082 
L 200.787377 -34.147798 
L 199.0026 -34.147798 
L 199.0026 -35.441543 
L 197.217823 -35.441543 
L 197.217823 -37.062371 
L 195.433046 -37.062371 
L 195.433046 -38.614718 
L 193.648269 -38.614718 
L 193.648269 -40.495725 
L 191.863492 -40.495725 
L 191.863492 -41.601831 
L 190.078716 -41.601831 
L 190.078716 -43.056681 
L 188.293939 -43.056681 
L 188.293939 -46.619555 
L 186.509162 -46.619555 
L 186.509162 -50.106512 
L 184.724385 -50.106512 
L 184.724385 -52.856236 
L 182.939608 -52.856236 
L 182.939608 -57.26674 
L 181.154831 -57.26674 
L 181.154831 -60.286204 
L 179.370054 -60.286204 
L 179.370054 -62.286126 
L 177.585277 -62.286126 
L 177.585277 -65.268664 
L 175.8005 -65.268664 
L 175.8005 -68.888767 
L 174.015723 -68.888767 
L 174.015723 -73.135528 
L 172.230947 -73.135528 
L 172.230947 -75.733645 
L 170.44617 -75.733645 
L 170.44617 -77.028647 
L 168.661393 -77.028647 
L 168.661393 -80.576761 
L 166.876616 -80.576761 
L 166.876616 -82.825117 
L 165.091839 -82.825117 
L 165.091839 -84.426763 
L 163.307062 -84.426763 
L 163.307062 -87.619685 
L 161.522285 -87.619685 
L 161.522285 -90.481966 
L 159.737508 -90.481966 
L 159.737508 -93.333939 
L 157.952731 -93.333939 
L 157.952731 -98.694079 
L 156.167954 -98.694079 
L 156.167954 -101.831258 
L 154.383177 -101.831258 
L 154.383177 -108.071656 
L 152.598401 -108.071656 
L 152.598401 -111.484978 
L 150.813624 -111.484978 
L 150.813624 -114.267841 
L 149.028847 -114.267841 
L 149.028847 -117.031621 
L 147.24407 -117.031621 
L 147.24407 -120.703099 
L 145.459293 -120.703099 
L 145.459293 -122.532995 
L 143.674516 -122.532995 
L 143.674516 -127.075438 
L 141.889739 -127.075438 
L 141.889739 -130.080585 
L 140.104962 -130.080585 
L 140.104962 -133.074633 
L 138.320185 -133.074633 
L 138.320185 -135.759541 
L 136.535408 -135.759541 
L 136.535408 -138.641727 
L 134.750632 -138.641727 
L 134.750632 -141.799825 
L 132.965855 -141.799825 
L 132.965855 -145.799715 
L 131.181078 -145.799715 
L 131.181078 -148.828947 
L 129.396301 -148.828947 
L 129.396301 -152.665143 
L 127.611524 -152.665143 
L 127.611524 -154.574693 
L 125.826747 -154.574693 
L 125.826747 -158.223646 
L 124.04197 -158.223646 
L 124.04197 -161.07521 
L 122.257193 -161.07521 
L 122.257193 -163.139828 
L 120.472416 -163.139828 
L 120.472416 -165.780588 
L 118.687639 -165.780588 
L 118.687639 -169.122751 
L 116.902863 -169.122751 
L 116.902863 -171.495788 
L 115.118086 -171.495788 
L 115.118086 -172.813602 
L 113.333309 -172.813602 
L 113.333309 -175.655971 
L 111.548532 -175.655971 
L 111.548532 -179.342927 
L 109.763755 -179.342927 
L 109.763755 -180.909963 
L 107.978978 -180.909963 
L 107.978978 -183.053799 
L 106.194201 -183.053799 
L 106.194201 -185.954125 
L 104.409424 -185.954125 
L 104.409424 -187.882751 
L 102.624647 -187.882751 
L 102.624647 -191.008251 
L 100.83987 -191.008251 
L 100.83987 -192.553909 
L 99.055094 -192.553909 
L 99.055094 -194.29097 
L 97.270317 -194.29097 
L 97.270317 -196.319394 
L 95.48554 -196.319394 
L 95.48554 -197.551208 
L 93.700763 -197.551208 
L 93.700763 -198.951829 
L 91.915986 -198.951829 
L 91.915986 -200.192917 
L 90.131209 -200.192917 
L 90.131209 -201.275701 
L 88.346432 -201.275701 
L 88.346432 -201.890053 
L 86.561655 -201.890053 
L 86.561655 -202.734632 
L 84.776878 -202.734632 
L 84.776878 -203.089382 
L 82.992101 -203.089382 
L 82.992101 -203.304926 
L 81.207324 -203.304926 
L 81.207324 -204.043272 
L 79.422548 -204.043272 
L 79.422548 -204.146248 
L 77.637771 -204.146248 
L 77.637771 -204.604766 
L 75.852994 -204.604766 
L 75.852994 -204.871311 
L 74.068217 -204.871311 
L 74.068217 -205.044284 
L 72.28344 -205.044284 
L 72.28344 -205.417978 
L 70.498663 -205.417978 
L 70.498663 -205.811907 
L 68.713886 -205.811907 
L 68.713886 -205.865578 
L 66.929109 -205.865578 
L 66.929109 -205.910087 
L 61.574779 -205.910087 
L 61.574779 -205.910087 
L 59.790002 -205.910087 
L 59.790002 -205.944963 
L 56.220448 -205.944963 
L 56.220448 -205.944963 
L 54.435671 -205.944963 
L 54.435671 -205.968679 
L 50.866117 -205.968679 
L 50.866117 -205.968679 
L 45.511786 -205.968679 
L 45.511786 -205.968679 
L 43.72701 -205.968679 
L 43.72701 -205.976638 
L 34.803125 -205.976638 
z
" style="stroke: #e65100; stroke-opacity: 0.18"/>
    </defs>
    <g clip-path="url(#p0a682f4029)">
     <use xlink:href="#m39435b141e" x="0" y="221.896548" style="fill: #e65100; fill-opacity: 0.18; stroke: #e65100; stroke-opacity: 0.18"/>
    </g>
   </g>
   <g id="FillBetweenPolyCollection_4">
    <defs>
     <path id="mbfd202af65" d="M 34.803125 -205.976638 
L 34.803125 -205.976638 
L 45.511786 -205.976638 
L 45.511786 -205.976638 
L 50.866117 -205.976638 
L 50.866117 -205.976638 
L 56.220448 -205.976638 
L 56.220448 -205.976638 
L 61.574779 -205.976638 
L 61.574779 -205.976638 
L 63.359555 -205.976638 
L 63.359555 -205.028068 
L 65.144332 -205.028068 
L 65.144332 -204.889907 
L 66.929109 -204.889907 
L 66.929109 -204.889907 
L 72.28344 -204.889907 
L 72.28344 -204.720803 
L 74.068217 -204.720803 
L 74.068217 -204.337694 
L 75.852994 -204.337694 
L 75.852994 -203.981133 
L 77.637771 -203.981133 
L 77.637771 -203.638995 
L 79.422548 -203.638995 
L 79.422548 -202.861355 
L 81.207324 -202.861355 
L 81.207324 -201.7616 
L 82.992101 -201.7616 
L 82.992101 -201.7616 
L 84.776878 -201.7616 
L 84.776878 -201.146716 
L 86.561655 -201.146716 
L 86.561655 -200.346693 
L 88.346432 -200.346693 
L 88.346432 -200.148955 
L 90.131209 -200.148955 
L 90.131209 -199.489363 
L 91.915986 -199.489363 
L 91.915986 -197.985305 
L 93.700763 -197.985305 
L 93.700763 -196.92966 
L 95.48554 -196.92966 
L 95.48554 -194.773602 
L 97.270317 -194.773602 
L 97.270317 -193.132508 
L 99.055094 -193.132508 
L 99.055094 -191.965977 
L 100.83987 -191.965977 
L 100.83987 -190.133529 
L 102.624647 -190.133529 
L 102.624647 -188.322171 
L 104.409424 -188.322171 
L 104.409424 -187.549439 
L 106.194201 -187.549439 
L 106.194201 -185.27433 
L 107.978978 -185.27433 
L 107.978978 -183.306209 
L 109.763755 -183.306209 
L 109.763755 -182.461963 
L 111.548532 -182.461963 
L 111.548532 -180.295792 
L 113.333309 -180.295792 
L 113.333309 -178.145281 
L 115.118086 -178.145281 
L 115.118086 -177.223265 
L 116.902863 -177.223265 
L 116.902863 -174.817513 
L 118.687639 -174.817513 
L 118.687639 -173.452653 
L 120.472416 -173.452653 
L 120.472416 -171.056458 
L 122.257193 -171.056458 
L 122.257193 -168.416201 
L 124.04197 -168.416201 
L 124.04197 -166.917664 
L 125.826747 -166.917664 
L 125.826747 -165.421697 
L 127.611524 -165.421697 
L 127.611524 -161.025425 
L 129.396301 -161.025425 
L 129.396301 -156.666672 
L 131.181078 -156.666672 
L 131.181078 -154.285324 
L 132.965855 -154.285324 
L 132.965855 -148.909972 
L 134.750632 -148.909972 
L 134.750632 -146.858274 
L 136.535408 -146.858274 
L 136.535408 -144.398019 
L 138.320185 -144.398019 
L 138.320185 -142.27983 
L 140.104962 -142.27983 
L 140.104962 -139.316844 
L 141.889739 -139.316844 
L 141.889739 -135.093787 
L 143.674516 -135.093787 
L 143.674516 -130.74212 
L 145.459293 -130.74212 
L 145.459293 -128.568439 
L 147.24407 -128.568439 
L 147.24407 -126.382801 
L 149.028847 -126.382801 
L 149.028847 -122.357333 
L 150.813624 -122.357333 
L 150.813624 -121.008028 
L 152.598401 -121.008028 
L 152.598401 -117.405863 
L 154.383177 -117.405863 
L 154.383177 -111.472181 
L 156.167954 -111.472181 
L 156.167954 -109.657359 
L 157.952731 -109.657359 
L 157.952731 -106.021805 
L 159.737508 -106.021805 
L 159.737508 -100.605911 
L 161.522285 -100.605911 
L 161.522285 -97.914556 
L 163.307062 -97.914556 
L 163.307062 -92.120992 
L 165.091839 -92.120992 
L 165.091839 -84.0696 
L 166.876616 -84.0696 
L 166.876616 -80.084517 
L 168.661393 -80.084517 
L 168.661393 -77.862705 
L 170.44617 -77.862705 
L 170.44617 -74.32709 
L 172.230947 -74.32709 
L 172.230947 -71.691522 
L 174.015723 -71.691522 
L 174.015723 -68.95247 
L 175.8005 -68.95247 
L 175.8005 -67.589571 
L 177.585277 -67.589571 
L 177.585277 -67.130551 
L 179.370054 -67.130551 
L 179.370054 -65.738997 
L 181.154831 -65.738997 
L 181.154831 -64.814165 
L 182.939608 -64.814165 
L 182.939608 -61.59605 
L 184.724385 -61.59605 
L 184.724385 -59.281614 
L 186.509162 -59.281614 
L 186.509162 -55.16124 
L 188.293939 -55.16124 
L 188.293939 -50.660916 
L 190.078716 -50.660916 
L 190.078716 -49.329109 
L 191.863492 -49.329109 
L 191.863492 -46.259714 
L 193.648269 -46.259714 
L 193.648269 -45.393652 
L 195.433046 -45.393652 
L 195.433046 -42.829362 
L 197.217823 -42.829362 
L 197.217823 -40.325535 
L 199.0026 -40.325535 
L 199.0026 -38.298289 
L 200.787377 -38.298289 
L 200.787377 -37.115195 
L 202.572154 -37.115195 
L 202.572154 -34.324404 
L 204.356931 -34.324404 
L 204.356931 -33.954011 
L 206.141708 -33.954011 
L 206.141708 -33.536086 
L 207.926485 -33.536086 
L 207.926485 -32.759434 
L 209.711261 -32.759434 
L 209.711261 -32.094166 
L 211.496038 -32.094166 
L 211.496038 -31.63717 
L 211.496038 -34.640564 
L 211.496038 -34.640564 
L 211.496038 -36.284584 
L 209.711261 -36.284584 
L 209.711261 -37.847001 
L 207.926485 -37.847001 
L 207.926485 -39.322102 
L 206.141708 -39.322102 
L 206.141708 -40.034661 
L 204.356931 -40.034661 
L 204.356931 -40.690777 
L 202.572154 -40.690777 
L 202.572154 -45.107097 
L 200.787377 -45.107097 
L 200.787377 -46.860069 
L 199.0026 -46.860069 
L 199.0026 -49.730795 
L 197.217823 -49.730795 
L 197.217823 -53.110106 
L 195.433046 -53.110106 
L 195.433046 -56.433551 
L 193.648269 -56.433551 
L 193.648269 -57.530916 
L 191.863492 -57.530916 
L 191.863492 -61.336368 
L 190.078716 -61.336368 
L 190.078716 -62.952149 
L 188.293939 -62.952149 
L 188.293939 -68.281739 
L 186.509162 -68.281739 
L 186.509162 -73.013712 
L 184.724385 -73.013712 
L 184.724385 -75.619272 
L 182.939608 -75.619272 
L 182.939608 -79.200326 
L 181.154831 -79.200326 
L 181.154831 -80.218549 
L 179.370054 -80.218549 
L 179.370054 -81.741935 
L 177.585277 -81.741935 
L 177.585277 -82.243683 
L 175.8005 -82.243683 
L 175.8005 -83.731499 
L 174.015723 -83.731499 
L 174.015723 -86.69494 
L 172.230947 -86.69494 
L 172.230947 -89.542554 
L 170.44617 -89.542554 
L 170.44617 -93.319403 
L 168.661393 -93.319403 
L 168.661393 -95.668778 
L 166.876616 -95.668778 
L 166.876616 -99.846727 
L 165.091839 -99.846727 
L 165.091839 -108.127838 
L 163.307062 -108.127838 
L 163.307062 -113.979995 
L 161.522285 -113.979995 
L 161.522285 -116.665135 
L 159.737508 -116.665135 
L 159.737508 -122.005411 
L 157.952731 -122.005411 
L 157.952731 -125.543198 
L 156.167954 -125.543198 
L 156.167954 -127.297111 
L 154.383177 -127.297111 
L 154.383177 -132.965909 
L 152.598401 -132.965909 
L 152.598401 -136.372166 
L 150.813624 -136.372166 
L 150.813624 -137.639766 
L 149.028847 -137.639766 
L 149.028847 -141.397617 
L 147.24407 -141.397617 
L 147.24407 -143.42952 
L 145.459293 -143.42952 
L 145.459293 -145.440247 
L 143.674516 -145.440247 
L 143.674516 -149.427507 
L 141.889739 -149.427507 
L 141.889739 -153.271427 
L 140.104962 -153.271427 
L 140.104962 -155.938009 
L 138.320185 -155.938009 
L 138.320185 -157.828599 
L 136.535408 -157.828599 
L 136.535408 -160.022712 
L 134.750632 -160.022712 
L 134.750632 -161.838589 
L 132.965855 -161.838589 
L 132.965855 -166.525908 
L 131.181078 -166.525908 
L 131.181078 -168.589759 
L 129.396301 -168.589759 
L 129.396301 -172.317429 
L 127.611524 -172.317429 
L 127.611524 -175.99559 
L 125.826747 -175.99559 
L 125.826747 -177.247453 
L 124.04197 -177.247453 
L 124.04197 -178.491358 
L 122.257193 -178.491358 
L 122.257193 -180.654337 
L 120.472416 -180.654337 
L 120.472416 -182.632899 
L 118.687639 -182.632899 
L 118.687639 -183.748295 
L 116.902863 -183.748295 
L 116.902863 -185.686975 
L 115.118086 -185.686975 
L 115.118086 -186.441143 
L 113.333309 -186.441143 
L 113.333309 -188.182413 
L 111.548532 -188.182413 
L 111.548532 -189.905435 
L 109.763755 -189.905435 
L 109.763755 -190.584216 
L 107.978978 -190.584216 
L 107.978978 -192.149043 
L 106.194201 -192.149043 
L 106.194201 -193.917739 
L 104.409424 -193.917739 
L 104.409424 -194.52411 
L 102.624647 -194.52411 
L 102.624647 -195.92443 
L 100.83987 -195.92443 
L 100.83987 -197.305041 
L 99.055094 -197.305041 
L 99.055094 -198.192871 
L 97.270317 -198.192871 
L 97.270317 -199.413955 
L 95.48554 -199.413955 
L 95.48554 -200.950478 
L 93.700763 -200.950478 
L 93.700763 -201.703261 
L 91.915986 -201.703261 
L 91.915986 -202.731058 
L 90.131209 -202.731058 
L 90.131209 -203.160412 
L 88.346432 -203.160412 
L 88.346432 -203.2916 
L 86.561655 -203.2916 
L 86.561655 -203.80779 
L 84.776878 -203.80779 
L 84.776878 -204.185094 
L 82.992101 -204.185094 
L 82.992101 -204.185094 
L 81.207324 -204.185094 
L 81.207324 -204.847931 
L 79.422548 -204.847931 
L 79.422548 -205.261137 
L 77.637771 -205.261137 
L 77.637771 -205.438318 
L 75.852994 -205.438318 
L 75.852994 -205.605796 
L 74.068217 -205.605796 
L 74.068217 -205.758863 
L 72.28344 -205.758863 
L 72.28344 -205.823146 
L 66.929109 -205.823146 
L 66.929109 -205.823146 
L 65.144332 -205.823146 
L 65.144332 -205.877726 
L 63.359555 -205.877726 
L 63.359555 -205.976638 
L 61.574779 -205.976638 
L 61.574779 -205.976638 
L 56.220448 -205.976638 
L 56.220448 -205.976638 
L 50.866117 -205.976638 
L 50.866117 -205.976638 
L 45.511786 -205.976638 
L 45.511786 -205.976638 
L 34.803125 -205.976638 
z
" style="stroke: #f0a500; stroke-opacity: 0.18"/>
    </defs>
    <g clip-path="url(#p0a682f4029)">
     <use xlink:href="#mbfd202af65" x="0" y="221.896548" style="fill: #f0a500; fill-opacity: 0.18; stroke: #f0a500; stroke-opacity: 0.18"/>
    </g>
   </g>
   <g id="line2d_1">
    <path d="M 34.803125 103.11901 
L 220.330684 103.11901 
" clip-path="url(#p0a682f4029)" style="fill: none; stroke-dasharray: 2.22,0.96; stroke-dashoffset: 0; stroke: #808080; stroke-opacity: 0.6; stroke-width: 0.6"/>
   </g>
   <g id="matplotlib.axis_1">
    <g id="xtick_1">
     <g id="line2d_2">
      <defs>
       <path id="m5784c07f14" d="M 0 0 
L 0 3.5 
" style="stroke: #000000; stroke-width: 0.6"/>
      </defs>
      <g>
       <use xlink:href="#m5784c07f14" x="34.803125" y="190.31811" style="stroke: #000000; stroke-width: 0.6"/>
      </g>
     </g>
     <g id="text_1">
      <text style="font-size: 7px; font-family: 'Arial', 'Helvetica', 'DejaVu Sans', sans-serif; text-anchor: middle" x="34.803125" y="202.328579" transform="rotate(-0 34.803125 202.328579)">0.0</text>
     </g>
    </g>
    <g id="xtick_2">
     <g id="line2d_3">
      <g>
       <use xlink:href="#m5784c07f14" x="61.574779" y="190.31811" style="stroke: #000000; stroke-width: 0.6"/>
      </g>
     </g>
     <g id="text_2">
      <text style="font-size: 7px; font-family: 'Arial', 'Helvetica', 'DejaVu Sans', sans-serif; text-anchor: middle" x="61.574779" y="202.328579" transform="rotate(-0 61.574779 202.328579)">2.5</text>
     </g>
    </g>
    <g id="xtick_3">
     <g id="line2d_4">
      <g>
       <use xlink:href="#m5784c07f14" x="88.346432" y="190.31811" style="stroke: #000000; stroke-width: 0.6"/>
      </g>
     </g>
     <g id="text_3">
      <text style="font-size: 7px; font-family: 'Arial', 'Helvetica', 'DejaVu Sans', sans-serif; text-anchor: middle" x="88.346432" y="202.328579" transform="rotate(-0 88.346432 202.328579)">5.0</text>
     </g>
    </g>
    <g id="xtick_4">
     <g id="line2d_5">
      <g>
       <use xlink:href="#m5784c07f14" x="115.118086" y="190.31811" style="stroke: #000000; stroke-width: 0.6"/>
      </g>
     </g>
     <g id="text_4">
      <text style="font-size: 7px; font-family: 'Arial', 'Helvetica', 'DejaVu Sans', sans-serif; text-anchor: middle" x="115.118086" y="202.328579" transform="rotate(-0 115.118086 202.328579)">7.5</text>
     </g>
    </g>
    <g id="xtick_5">
     <g id="line2d_6">
      <g>
       <use xlink:href="#m5784c07f14" x="141.889739" y="190.31811" style="stroke: #000000; stroke-width: 0.6"/>
      </g>
     </g>
     <g id="text_5">
      <text style="font-size: 7px; font-family: 'Arial', 'Helvetica', 'DejaVu Sans', sans-serif; text-anchor: middle" x="141.889739" y="202.328579" transform="rotate(-0 141.889739 202.328579)">10.0</text>
     </g>
    </g>
    <g id="xtick_6">
     <g id="line2d_7">
      <g>
       <use xlink:href="#m5784c07f14" x="168.661393" y="190.31811" style="stroke: #000000; stroke-width: 0.6"/>
      </g>
     </g>
     <g id="text_6">
      <text style="font-size: 7px; font-family: 'Arial', 'Helvetica', 'DejaVu Sans', sans-serif; text-anchor: middle" x="168.661393" y="202.328579" transform="rotate(-0 168.661393 202.328579)">12.5</text>
     </g>
    </g>
    <g id="xtick_7">
     <g id="line2d_8">
      <g>
       <use xlink:href="#m5784c07f14" x="195.433046" y="190.31811" style="stroke: #000000; stroke-width: 0.6"/>
      </g>
     </g>
     <g id="text_7">
      <text style="font-size: 7px; font-family: 'Arial', 'Helvetica', 'DejaVu Sans', sans-serif; text-anchor: middle" x="195.433046" y="202.328579" transform="rotate(-0 195.433046 202.328579)">15.0</text>
     </g>
    </g>
    <g id="text_8">
     <text style="font-size: 8.5px; font-family: 'Arial', 'Helvetica', 'DejaVu Sans', sans-serif; text-anchor: middle" x="127.566905" y="212.907563" transform="rotate(-0 127.566905 212.907563)">Time since birth (min)</text>
    </g>
   </g>
   <g id="matplotlib.axis_2">
    <g id="ytick_1">
     <g id="line2d_9">
      <defs>
       <path id="mab614a0abf" d="M 0 0 
L -3.5 0 
" style="stroke: #000000; stroke-width: 0.6"/>
      </defs>
      <g>
       <use xlink:href="#mab614a0abf" x="34.803125" y="190.31811" style="stroke: #000000; stroke-width: 0.6"/>
      </g>
     </g>
     <g id="text_9">
      <text style="font-size: 7px; font-family: 'Arial', 'Helvetica', 'DejaVu Sans', sans-serif; text-anchor: end" x="27.803125" y="192.823345" transform="rotate(-0 27.803125 192.823345)">0.0</text>
     </g>
    </g>
    <g id="ytick_2">
     <g id="line2d_10">
      <g>
       <use xlink:href="#mab614a0abf" x="34.803125" y="155.43847" style="stroke: #000000; stroke-width: 0.6"/>
      </g>
     </g>
     <g id="text_10">
      <text style="font-size: 7px; font-family: 'Arial', 'Helvetica', 'DejaVu Sans', sans-serif; text-anchor: end" x="27.803125" y="157.943705" transform="rotate(-0 27.803125 157.943705)">0.2</text>
     </g>
    </g>
    <g id="ytick_3">
     <g id="line2d_11">
      <g>
       <use xlink:href="#mab614a0abf" x="34.803125" y="120.55883" style="stroke: #000000; stroke-width: 0.6"/>
      </g>
     </g>
     <g id="text_11">
      <text style="font-size: 7px; font-family: 'Arial', 'Helvetica', 'DejaVu Sans', sans-serif; text-anchor: end" x="27.803125" y="123.064065" transform="rotate(-0 27.803125 123.064065)">0.4</text>
     </g>
    </g>
    <g id="ytick_4">
     <g id="line2d_12">
      <g>
       <use xlink:href="#mab614a0abf" x="34.803125" y="85.67919" style="stroke: #000000; stroke-width: 0.6"/>
      </g>
     </g>
     <g id="text_12">
      <text style="font-size: 7px; font-family: 'Arial', 'Helvetica', 'DejaVu Sans', sans-serif; text-anchor: end" x="27.803125" y="88.184424" transform="rotate(-0 27.803125 88.184424)">0.6</text>
     </g>
    </g>
    <g id="ytick_5">
     <g id="line2d_13">
      <g>
       <use xlink:href="#mab614a0abf" x="34.803125" y="50.79955" style="stroke: #000000; stroke-width: 0.6"/>
      </g>
     </g>
     <g id="text_13">
      <text style="font-size: 7px; font-family: 'Arial', 'Helvetica', 'DejaVu Sans', sans-serif; text-anchor: end" x="27.803125" y="53.304784" transform="rotate(-0 27.803125 53.304784)">0.8</text>
     </g>
    </g>
    <g id="ytick_6">
     <g id="line2d_14">
      <g>
       <use xlink:href="#mab614a0abf" x="34.803125" y="15.91991" style="stroke: #000000; stroke-width: 0.6"/>
      </g>
     </g>
     <g id="text_14">
      <text style="font-size: 7px; font-family: 'Arial', 'Helvetica', 'DejaVu Sans', sans-serif; text-anchor: end" x="27.803125" y="18.425144" transform="rotate(-0 27.803125 18.425144)">1.0</text>
     </g>
    </g>
    <g id="text_15">
     <text style="font-size: 8.5px; font-family: 'Arial', 'Helvetica', 'DejaVu Sans', sans-serif; text-anchor: middle" x="13.284141" y="98.759055" transform="rotate(-90 13.284141 98.759055)">Fraction surviving</text>
    </g>
   </g>
   <g id="line2d_15">
    <path d="M 34.803125 15.91991 
L 41.942233 15.91991 
L 41.942233 16.790161 
L 43.72701 16.790161 
L 43.72701 17.486361 
L 45.511786 17.486361 
L 45.511786 18.095536 
L 47.296563 18.095536 
L 47.296563 18.934283 
L 49.08134 18.934283 
L 49.08134 19.866223 
L 50.866117 19.866223 
L 50.866117 20.518581 
L 52.650894 20.518581 
L 52.650894 22.501063 
L 54.435671 22.501063 
L 54.435671 23.194931 
L 56.220448 23.194931 
L 56.220448 24.582668 
L 58.005225 24.582668 
L 58.005225 25.752065 
L 59.790002 25.752065 
L 59.790002 27.346697 
L 61.574779 27.346697 
L 61.574779 29.153947 
L 63.359555 29.153947 
L 63.359555 31.414314 
L 65.144332 31.414314 
L 65.144332 33.222607 
L 66.929109 33.222607 
L 66.929109 34.692904 
L 68.713886 34.692904 
L 68.713886 36.750158 
L 70.498663 36.750158 
L 70.498663 39.049441 
L 72.28344 39.049441 
L 72.28344 40.622636 
L 74.068217 40.622636 
L 74.068217 42.195618 
L 75.852994 42.195618 
L 75.852994 44.555091 
L 77.637771 44.555091 
L 77.637771 46.521319 
L 79.422548 46.521319 
L 79.422548 47.953558 
L 81.207324 47.953558 
L 81.207324 50.674812 
L 82.992101 50.674812 
L 82.992101 53.396066 
L 84.776878 53.396066 
L 84.776878 57.134552 
L 86.561655 57.134552 
L 86.561655 59.471105 
L 88.346432 59.471105 
L 88.346432 62.58651 
L 90.131209 62.58651 
L 90.131209 65.55318 
L 91.915986 65.55318 
L 91.915986 68.025404 
L 93.700763 68.025404 
L 93.700763 70.497629 
L 95.48554 70.497629 
L 95.48554 73.609849 
L 97.270317 73.609849 
L 97.270317 77.067872 
L 99.055094 77.067872 
L 99.055094 79.142685 
L 100.83987 79.142685 
L 100.83987 81.931366 
L 102.624647 81.931366 
L 102.624647 84.162311 
L 104.409424 84.162311 
L 104.409424 86.207344 
L 106.194201 86.207344 
L 106.194201 90.150934 
L 107.978978 90.150934 
L 107.978978 92.714267 
L 109.763755 92.714267 
L 109.763755 95.869139 
L 111.548532 95.869139 
L 111.548532 98.338393 
L 113.333309 98.338393 
L 113.333309 103.276901 
L 115.118086 103.276901 
L 115.118086 106.157698 
L 116.902863 106.157698 
L 116.902863 111.39047 
L 118.687639 111.39047 
L 118.687639 115.751113 
L 120.472416 115.751113 
L 120.472416 118.803563 
L 122.257193 118.803563 
L 122.257193 121.773816 
L 124.04197 121.773816 
L 124.04197 124.058625 
L 125.826747 124.058625 
L 125.826747 128.171283 
L 127.611524 128.171283 
L 127.611524 133.077612 
L 129.396301 133.077612 
L 129.396301 138.217575 
L 131.181078 138.217575 
L 131.181078 142.422999 
L 132.965855 142.422999 
L 132.965855 145.758977 
L 134.750632 145.758977 
L 134.750632 149.333239 
L 136.535408 149.333239 
L 136.535408 152.192649 
L 138.320185 152.192649 
L 138.320185 154.57549 
L 140.104962 154.57549 
L 140.104962 156.958331 
L 141.889739 156.958331 
L 141.889739 160.770878 
L 143.674516 160.770878 
L 143.674516 164.61442 
L 145.459293 164.61442 
L 145.459293 167.97752 
L 147.24407 167.97752 
L 147.24407 170.139512 
L 149.028847 170.139512 
L 149.028847 172.541726 
L 150.813624 172.541726 
L 150.813624 175.904826 
L 152.598401 175.904826 
L 152.598401 179.267926 
L 154.383177 179.267926 
L 154.383177 180.709254 
L 156.167954 180.709254 
L 156.167954 182.871247 
L 157.952731 182.871247 
L 157.952731 184.312575 
L 159.737508 184.312575 
L 159.737508 185.753904 
L 161.522285 185.753904 
L 161.522285 186.474568 
L 163.307062 186.474568 
L 163.307062 187.435453 
L 165.091839 187.435453 
L 165.091839 188.156118 
L 166.876616 188.156118 
L 166.876616 188.63656 
L 168.661393 188.63656 
L 168.661393 189.597446 
L 170.44617 189.597446 
L 170.44617 189.837667 
L 172.230947 189.837667 
L 172.230947 190.077889 
L 174.015723 190.077889 
L 174.015723 190.31811 
L 174.015723 190.31811 
" clip-path="url(#p0a682f4029)" style="fill: none; stroke: #1a237e; stroke-width: 1.8; stroke-linecap: square"/>
   </g>
   <g id="line2d_16">
    <path d="M 34.803125 15.91991 
L 43.72701 15.970475 
L 43.72701 16.071605 
L 50.866117 16.178055 
L 50.866117 16.289827 
L 59.790002 16.359327 
L 59.790002 16.776328 
L 61.574779 16.776328 
L 61.574779 16.915328 
L 63.359555 16.915328 
L 63.359555 17.375486 
L 65.144332 17.375486 
L 65.144332 17.682257 
L 66.929109 17.682257 
L 66.929109 17.989029 
L 68.713886 17.989029 
L 68.713886 18.505242 
L 70.498663 18.505242 
L 70.498663 19.021455 
L 72.28344 19.021455 
L 72.28344 20.225952 
L 74.068217 20.225952 
L 74.068217 21.284218 
L 75.852994 21.284218 
L 75.852994 22.438689 
L 77.637771 22.438689 
L 77.637771 23.304543 
L 79.422548 23.304543 
L 79.422548 24.58434 
L 81.207324 24.58434 
L 81.207324 26.185117 
L 82.992101 26.185117 
L 82.992101 27.145583 
L 84.776878 27.145583 
L 84.776878 28.819148 
L 86.561655 28.819148 
L 86.561655 30.492712 
L 88.346432 30.492712 
L 88.346432 31.209954 
L 90.131209 31.209954 
L 90.131209 32.406256 
L 91.915986 32.406256 
L 91.915986 34.931782 
L 93.700763 34.931782 
L 93.700763 37.590231 
L 95.48554 37.590231 
L 95.48554 39.46685 
L 97.270317 39.46685 
L 97.270317 41.632179 
L 99.055094 41.632179 
L 99.055094 44.086218 
L 100.83987 44.086218 
L 100.83987 46.123747 
L 102.624647 46.123747 
L 102.624647 48.318009 
L 104.409424 48.318009 
L 104.409424 51.295937 
L 106.194201 51.295937 
L 106.194201 53.167716 
L 107.978978 53.167716 
L 107.978978 54.869334 
L 109.763755 54.869334 
L 109.763755 56.911275 
L 111.548532 56.911275 
L 111.548532 58.723868 
L 113.333309 58.723868 
L 113.333309 61.986535 
L 115.118086 61.986535 
L 115.118086 65.611721 
L 116.902863 65.611721 
L 116.902863 68.502905 
L 118.687639 68.502905 
L 118.687639 72.943079 
L 120.472416 72.943079 
L 120.472416 76.611048 
L 122.257193 76.611048 
L 122.257193 79.973919 
L 124.04197 79.973919 
L 124.04197 82.933342 
L 125.826747 82.933342 
L 125.826747 88.852187 
L 127.611524 88.852187 
L 127.611524 90.612984 
L 129.396301 90.612984 
L 129.396301 94.574777 
L 131.181078 94.574777 
L 131.181078 96.555674 
L 132.965855 96.555674 
L 132.965855 100.501123 
L 134.750632 100.501123 
L 134.750632 104.214487 
L 136.535408 104.214487 
L 136.535408 107.007037 
L 138.320185 107.007037 
L 138.320185 109.401033 
L 140.104962 109.401033 
L 140.104962 114.428425 
L 141.889739 114.428425 
L 141.889739 119.695217 
L 143.674516 119.695217 
L 143.674516 123.591653 
L 145.459293 123.591653 
L 145.459293 127.502361 
L 147.24407 127.502361 
L 147.24407 131.413069 
L 149.028847 131.413069 
L 149.028847 135.079358 
L 150.813624 135.079358 
L 150.813624 138.256808 
L 152.598401 138.256808 
L 152.598401 142.411936 
L 154.383177 142.411936 
L 154.383177 146.811482 
L 156.167954 146.811482 
L 156.167954 150.233352 
L 157.952731 150.233352 
L 157.952731 153.899641 
L 159.737508 153.899641 
L 159.737508 157.56593 
L 161.522285 157.56593 
L 161.522285 161.232219 
L 163.307062 161.232219 
L 163.307062 164.16525 
L 165.091839 164.16525 
L 165.091839 166.609442 
L 166.876616 166.609442 
L 166.876616 168.075958 
L 168.661393 168.075958 
L 168.661393 171.008989 
L 170.44617 171.008989 
L 170.44617 173.208762 
L 172.230947 173.208762 
L 172.230947 176.875051 
L 175.8005 176.875051 
L 175.8005 178.830405 
L 177.585277 178.830405 
L 177.585277 180.54134 
L 179.370054 180.54134 
L 179.370054 182.252275 
L 181.154831 182.252275 
L 181.154831 183.71879 
L 182.939608 183.71879 
L 182.939608 185.429725 
L 184.724385 185.429725 
L 184.724385 187.14066 
L 186.509162 187.14066 
L 186.509162 188.607175 
L 188.293939 188.607175 
L 188.293939 189.340433 
L 190.078716 189.340433 
L 190.078716 189.584852 
L 191.863492 189.584852 
L 191.863492 190.073691 
L 193.648269 190.073691 
L 193.648269 190.31811 
L 193.648269 190.31811 
" clip-path="url(#p0a682f4029)" style="fill: none; stroke: #7b1fa2; stroke-width: 1.8; stroke-linecap: square"/>
   </g>
   <g id="line2d_17">
    <path d="M 34.803125 15.91991 
L 54.435671 15.976404 
L 54.435671 16.04771 
L 66.929109 16.128615 
L 66.929109 16.21991 
L 70.498663 16.32214 
L 70.498663 16.935522 
L 72.28344 16.935522 
L 72.28344 17.446673 
L 74.068217 17.446673 
L 74.068217 17.679811 
L 75.852994 17.679811 
L 75.852994 18.029517 
L 77.637771 18.029517 
L 77.637771 18.612361 
L 79.422548 18.612361 
L 79.422548 18.743835 
L 81.207324 18.743835 
L 81.207324 19.664157 
L 82.992101 19.664157 
L 82.992101 19.927106 
L 84.776878 19.927106 
L 84.776878 20.362889 
L 86.561655 20.362889 
L 86.561655 21.380585 
L 88.346432 21.380585 
L 88.346432 22.10751 
L 90.131209 22.10751 
L 90.131209 23.385463 
L 91.915986 23.385463 
L 91.915986 24.823161 
L 93.700763 24.823161 
L 93.700763 26.420602 
L 95.48554 26.420602 
L 95.48554 27.824436 
L 97.270317 27.824436 
L 97.270317 30.105664 
L 99.055094 30.105664 
L 99.055094 32.035935 
L 100.83987 32.035935 
L 100.83987 33.754318 
L 102.624647 33.754318 
L 102.624647 37.191084 
L 104.409424 37.191084 
L 104.409424 39.29133 
L 106.194201 39.29133 
L 106.194201 42.455299 
L 107.978978 42.455299 
L 107.978978 44.775543 
L 109.763755 44.775543 
L 109.763755 46.462993 
L 111.548532 46.462993 
L 111.548532 50.445952 
L 113.333309 50.445952 
L 113.333309 53.491744 
L 115.118086 53.491744 
L 115.118086 54.897495 
L 116.902863 54.897495 
L 116.902863 57.438219 
L 118.687639 57.438219 
L 118.687639 60.995233 
L 120.472416 60.995233 
L 120.472416 63.79003 
L 122.257193 63.79003 
L 122.257193 65.980993 
L 124.04197 65.980993 
L 124.04197 68.993566 
L 125.826747 68.993566 
L 125.826747 72.82775 
L 127.611524 72.82775 
L 127.611524 74.833683 
L 129.396301 74.833683 
L 129.396301 78.845549 
L 131.181078 78.845549 
L 131.181078 81.99773 
L 132.965855 81.99773 
L 132.965855 86.152484 
L 134.750632 86.152484 
L 134.750632 89.416934 
L 136.535408 89.416934 
L 136.535408 92.384616 
L 138.320185 92.384616 
L 138.320185 95.147629 
L 140.104962 95.147629 
L 140.104962 98.217645 
L 141.889739 98.217645 
L 141.889739 101.28766 
L 143.674516 101.28766 
L 143.674516 105.908618 
L 145.459293 105.908618 
L 145.459293 107.763772 
L 147.24407 107.763772 
L 147.24407 111.474079 
L 149.028847 111.474079 
L 149.028847 114.25681 
L 150.813624 114.25681 
L 150.813624 117.050898 
L 152.598401 117.050898 
L 152.598401 120.465895 
L 154.383177 120.465895 
L 154.383177 126.674981 
L 156.167954 126.674981 
L 156.167954 129.779524 
L 157.952731 129.779524 
L 157.952731 135.057247 
L 159.737508 135.057247 
L 159.737508 137.851336 
L 161.522285 137.851336 
L 161.522285 140.645424 
L 163.307062 140.645424 
L 163.307062 143.749967 
L 165.091839 143.749967 
L 165.091839 145.302238 
L 166.876616 145.302238 
L 166.876616 147.475418 
L 168.661393 147.475418 
L 168.661393 150.890416 
L 170.44617 150.890416 
L 170.44617 152.132233 
L 172.230947 152.132233 
L 172.230947 154.615867 
L 174.015723 154.615867 
L 174.015723 158.651773 
L 175.8005 158.651773 
L 175.8005 162.06677 
L 177.585277 162.06677 
L 177.585277 164.860859 
L 179.370054 164.860859 
L 179.370054 166.723584 
L 181.154831 166.723584 
L 181.154831 169.517673 
L 182.939608 169.517673 
L 182.939608 173.553579 
L 184.724385 173.553579 
L 184.724385 176.037213 
L 186.509162 176.037213 
L 186.509162 179.141756 
L 188.293939 179.141756 
L 188.293939 182.246299 
L 190.078716 182.246299 
L 190.078716 183.488116 
L 191.863492 183.488116 
L 191.863492 184.419479 
L 193.648269 184.419479 
L 193.648269 185.97175 
L 195.433046 185.97175 
L 195.433046 187.213567 
L 197.217823 187.213567 
L 197.217823 188.455385 
L 199.0026 188.455385 
L 199.0026 189.386747 
L 200.787377 189.386747 
L 200.787377 190.007656 
L 204.356931 190.007656 
L 204.356931 190.31811 
L 204.356931 190.31811 
" clip-path="url(#p0a682f4029)" style="fill: none; stroke: #e65100; stroke-width: 1.8; stroke-linecap: square"/>
   </g>
   <g id="line2d_18">
    <path d="M 34.803125 15.91991 
L 63.359555 15.91991 
L 63.359555 16.226409 
L 72.28344 16.328576 
L 72.28344 16.443194 
L 74.068217 16.443194 
L 74.068217 16.700025 
L 75.852994 16.700025 
L 75.852994 16.957047 
L 77.637771 16.957047 
L 77.637771 17.214068 
L 79.422548 17.214068 
L 79.422548 17.79642 
L 81.207324 17.79642 
L 81.207324 18.669948 
L 84.776878 18.669948 
L 84.776878 19.158974 
L 86.561655 19.158974 
L 86.561655 19.811008 
L 88.346432 19.811008 
L 88.346432 19.974329 
L 90.131209 19.974329 
L 90.131209 20.512257 
L 91.915986 20.512257 
L 91.915986 21.768749 
L 93.700763 21.768749 
L 93.700763 22.669119 
L 95.48554 22.669119 
L 95.48554 24.502462 
L 97.270317 24.502462 
L 97.270317 25.928395 
L 99.055094 25.928395 
L 99.055094 26.953268 
L 100.83987 26.953268 
L 100.83987 28.552644 
L 102.624647 28.552644 
L 102.624647 30.154283 
L 104.409424 30.154283 
L 104.409424 30.842666 
L 106.194201 30.842666 
L 106.194201 32.858153 
L 107.978978 32.858153 
L 107.978978 34.621705 
L 109.763755 34.621705 
L 109.763755 35.382436 
L 111.548532 35.382436 
L 111.548532 37.322597 
L 113.333309 37.322597 
L 113.333309 39.266279 
L 115.118086 39.266279 
L 115.118086 40.103904 
L 116.902863 40.103904 
L 116.902863 42.271944 
L 118.687639 42.271944 
L 118.687639 43.510824 
L 120.472416 43.510824 
L 120.472416 45.697316 
L 122.257193 45.697316 
L 122.257193 48.096239 
L 124.04197 48.096239 
L 124.04197 49.467052 
L 125.826747 49.467052 
L 125.826747 50.841209 
L 127.611524 50.841209 
L 127.611524 54.878698 
L 129.396301 54.878698 
L 129.396301 58.927159 
L 131.181078 58.927159 
L 131.181078 61.154124 
L 132.965855 61.154124 
L 132.965855 66.196562 
L 134.750632 66.196562 
L 134.750632 68.135961 
L 136.535408 68.135961 
L 136.535408 70.470652 
L 138.320185 70.470652 
L 138.320185 72.481515 
L 140.104962 72.481515 
L 140.104962 75.306365 
L 141.889739 75.306365 
L 141.889739 79.356075 
L 143.674516 79.356075 
L 143.674516 83.543321 
L 145.459293 83.543321 
L 145.459293 85.645187 
L 147.24407 85.645187 
L 147.24407 87.764072 
L 149.028847 87.764072 
L 149.028847 91.675031 
L 150.813624 91.675031 
L 150.813624 92.990272 
L 152.598401 92.990272 
L 152.598401 96.513452 
L 154.383177 96.513452 
L 154.383177 102.348192 
L 156.167954 102.348192 
L 156.167954 104.143496 
L 157.952731 104.143496 
L 157.952731 107.752904 
L 159.737508 107.752904 
L 159.737508 113.167016 
L 161.522285 113.167016 
L 161.522285 115.874072 
L 163.307062 115.874072 
L 163.307062 121.73936 
L 165.091839 121.73936 
L 165.091839 129.96881 
L 166.876616 129.96881 
L 166.876616 134.083535 
L 168.661393 134.083535 
L 168.661393 136.38823 
L 170.44617 136.38823 
L 170.44617 140.075744 
L 172.230947 140.075744 
L 172.230947 142.841378 
L 174.015723 142.841378 
L 174.015723 145.718756 
L 175.8005 145.718756 
L 175.8005 147.157445 
L 177.585277 147.157445 
L 177.585277 147.642396 
L 179.370054 147.642396 
L 179.370054 149.113973 
L 181.154831 149.113973 
L 181.154831 150.095024 
L 182.939608 150.095024 
L 182.939608 153.528702 
L 184.724385 153.528702 
L 184.724385 156.014473 
L 186.509162 156.014473 
L 186.509162 160.48886 
L 188.293939 160.48886 
L 188.293939 165.460402 
L 190.078716 165.460402 
L 190.078716 166.951864 
L 191.863492 166.951864 
L 191.863492 170.431943 
L 193.648269 170.431943 
L 193.648269 171.426252 
L 195.433046 171.426252 
L 195.433046 174.409177 
L 197.217823 174.409177 
L 197.217823 177.392102 
L 199.0026 177.392102 
L 199.0026 179.877873 
L 200.787377 179.877873 
L 200.787377 181.369335 
L 202.572154 181.369335 
L 202.572154 185.054125 
L 204.356931 185.054125 
L 204.356931 185.580523 
L 206.141708 185.580523 
L 206.141708 186.172722 
L 207.926485 186.172722 
L 207.926485 187.357118 
L 209.711261 187.357118 
L 209.711261 188.541515 
L 211.496038 188.541515 
L 211.496038 189.725912 
L 211.496038 189.725912 
" clip-path="url(#p0a682f4029)" style="fill: none; stroke: #f0a500; stroke-width: 1.8; stroke-linecap: square"/>
   </g>
   <g id="patch_3">
    <path d="M 34.803125 190.31811 
L 34.803125 7.2 
" style="fill: none; stroke: #000000; stroke-width: 0.6; stroke-linejoin: miter; stroke-linecap: square"/>
   </g>
   <g id="patch_4">
    <path d="M 34.803125 190.31811 
L 220.330684 190.31811 
" style="fill: none; stroke: #000000; stroke-width: 0.6; stroke-linejoin: miter; stroke-linecap: square"/>
   </g>
   <g id="text_16">
    <!-- $\tau_{50}$ -->
    <g style="fill: #808080" transform="translate(99.41071 99.631046)">
     <text>
      <tspan x="0" y="-0.171875" style="font-style: oblique; font-size: 7px; font-family: 'DejaVu Sans'; fill: #808080">τ</tspan>
      <tspan x="4.214355" y="0.976562" style="font-size: 4.9px; font-family: 'DejaVu Sans'; fill: #808080">5</tspan>
      <tspan x="7.331885" y="0.976562" style="font-size: 4.9px; font-family: 'DejaVu Sans'; fill: #808080">0</tspan>
     </text>
    </g>
   </g>
   <g id="line2d_19">
    <defs>
     <path id="mef1a52b3de" d="M 0 2.25 
C 0.596707 2.25 1.169055 2.012926 1.59099 1.59099 
C 2.012926 1.169055 2.25 0.596707 2.25 0 
C 2.25 -0.596707 2.012926 -1.169055 1.59099 -1.59099 
C 1.169055 -2.012926 0.596707 -2.25 0 -2.25 
C -0.596707 -2.25 -1.169055 -2.012926 -1.59099 -1.59099 
C -2.012926 -1.169055 -2.25 -0.596707 -2.25 0 
C -2.25 0.596707 -2.012926 1.169055 -1.59099 1.59099 
C -1.169055 2.012926 -0.596707 2.25 0 2.25 
z
" style="stroke: #ffffff; stroke-width: 0.5"/>
    </defs>
    <g clip-path="url(#p0a682f4029)">
     <use xlink:href="#mef1a52b3de" x="113.333309" y="103.11901" style="fill: #1a237e; stroke: #ffffff; stroke-width: 0.5"/>
    </g>
   </g>
   <g id="line2d_20">
    <defs>
     <path id="m8c01da9483" d="M 0 2.25 
C 0.596707 2.25 1.169055 2.012926 1.59099 1.59099 
C 2.012926 1.169055 2.25 0.596707 2.25 0 
C 2.25 -0.596707 2.012926 -1.169055 1.59099 -1.59099 
C 1.169055 -2.012926 0.596707 -2.25 0 -2.25 
C -0.596707 -2.25 -1.169055 -2.012926 -1.59099 -1.59099 
C -2.012926 -1.169055 -2.25 -0.596707 -2.25 0 
C -2.25 0.596707 -2.012926 1.169055 -1.59099 1.59099 
C -1.169055 2.012926 -0.596707 2.25 0 2.25 
z
" style="stroke: #ffffff; stroke-width: 0.5"/>
    </defs>
    <g clip-path="url(#p0a682f4029)">
     <use xlink:href="#m8c01da9483" x="134.750632" y="103.11901" style="fill: #7b1fa2; stroke: #ffffff; stroke-width: 0.5"/>
    </g>
   </g>
   <g id="line2d_21">
    <defs>
     <path id="me4dbb5c108" d="M 0 2.25 
C 0.596707 2.25 1.169055 2.012926 1.59099 1.59099 
C 2.012926 1.169055 2.25 0.596707 2.25 0 
C 2.25 -0.596707 2.012926 -1.169055 1.59099 -1.59099 
C 1.169055 -2.012926 0.596707 -2.25 0 -2.25 
C -0.596707 -2.25 -1.169055 -2.012926 -1.59099 -1.59099 
C -2.012926 -1.169055 -2.25 -0.596707 -2.25 0 
C -2.25 0.596707 -2.012926 1.169055 -1.59099 1.59099 
C -1.169055 2.012926 -0.596707 2.25 0 2.25 
z
" style="stroke: #ffffff; stroke-width: 0.5"/>
    </defs>
    <g clip-path="url(#p0a682f4029)">
     <use xlink:href="#me4dbb5c108" x="143.674516" y="103.11901" style="fill: #e65100; stroke: #ffffff; stroke-width: 0.5"/>
    </g>
   </g>
   <g id="line2d_22">
    <defs>
     <path id="m57179a77fe" d="M 0 2.25 
C 0.596707 2.25 1.169055 2.012926 1.59099 1.59099 
C 2.012926 1.169055 2.25 0.596707 2.25 0 
C 2.25 -0.596707 2.012926 -1.169055 1.59099 -1.59099 
C 1.169055 -2.012926 0.596707 -2.25 0 -2.25 
C -0.596707 -2.25 -1.169055 -2.012926 -1.59099 -1.59099 
C -2.012926 -1.169055 -2.25 -0.596707 -2.25 0 
C -2.25 0.596707 -2.012926 1.169055 -1.59099 1.59099 
C -1.169055 2.012926 -0.596707 2.25 0 2.25 
z
" style="stroke: #ffffff; stroke-width: 0.5"/>
    </defs>
    <g clip-path="url(#p0a682f4029)">
     <use xlink:href="#m57179a77fe" x="156.167954" y="103.11901" style="fill: #f0a500; stroke: #ffffff; stroke-width: 0.5"/>
    </g>
   </g>
   <g id="legend_1">
    <g id="patch_5">
     <path d="M 157.797559 56.615 
L 215.780684 56.615 
Q 217.080684 56.615 217.080684 55.315 
L 217.080684 11.75 
Q 217.080684 10.45 215.780684 10.45 
L 157.797559 10.45 
Q 156.497559 10.45 156.497559 11.75 
L 156.497559 55.315 
Q 156.497559 56.615 157.797559 56.615 
z
" style="fill: #ffffff; opacity: 0.9; stroke: #cccccc; stroke-linejoin: miter"/>
    </g>
    <g id="text_17">
     <text style="font-size: 6px; font-family: 'Arial', 'Helvetica', 'DejaVu Sans', sans-serif; text-anchor: start" x="158.447559" y="16.694688" transform="rotate(-0 158.447559 16.694688)">Distance from source</text>
    </g>
    <g id="line2d_23">
     <path d="M 168.479434 23.514766 
L 174.979434 23.514766 
L 174.979434 23.514766 
L 181.479434 23.514766 
L 181.479434 23.514766 
" style="fill: none; stroke: #1a237e; stroke-width: 1.8; stroke-linecap: square"/>
    </g>
    <g id="text_18">
     <text style="font-size: 6.5px; font-family: 'Arial', 'Helvetica', 'DejaVu Sans', sans-serif; text-anchor: start" x="183.429434" y="25.789766" transform="rotate(-0 183.429434 25.789766)">0.9 mm</text>
    </g>
    <g id="line2d_24">
     <path d="M 168.479434 32.709219 
L 174.979434 32.709219 
L 174.979434 32.709219 
L 181.479434 32.709219 
L 181.479434 32.709219 
" style="fill: none; stroke: #7b1fa2; stroke-width: 1.8; stroke-linecap: square"/>
    </g>
    <g id="text_19">
     <text style="font-size: 6.5px; font-family: 'Arial', 'Helvetica', 'DejaVu Sans', sans-serif; text-anchor: start" x="183.429434" y="34.984219" transform="rotate(-0 183.429434 34.984219)">1.5 mm</text>
    </g>
    <g id="line2d_25">
     <path d="M 168.479434 41.903672 
L 174.979434 41.903672 
L 174.979434 41.903672 
L 181.479434 41.903672 
L 181.479434 41.903672 
" style="fill: none; stroke: #e65100; stroke-width: 1.8; stroke-linecap: square"/>
    </g>
    <g id="text_20">
     <text style="font-size: 6.5px; font-family: 'Arial', 'Helvetica', 'DejaVu Sans', sans-serif; text-anchor: start" x="183.429434" y="44.178672" transform="rotate(-0 183.429434 44.178672)">2.1 mm</text>
    </g>
    <g id="line2d_26">
     <path d="M 168.479434 51.098125 
L 174.979434 51.098125 
L 174.979434 51.098125 
L 181.479434 51.098125 
L 181.479434 51.098125 
" style="fill: none; stroke: #f0a500; stroke-width: 1.8; stroke-linecap: square"/>
    </g>
    <g id="text_21">
     <text style="font-size: 6.5px; font-family: 'Arial', 'Helvetica', 'DejaVu Sans', sans-serif; text-anchor: start" x="183.429434" y="53.373125" transform="rotate(-0 183.429434 53.373125)">2.9 mm</text>
    </g>
   </g>
  </g>
 </g>
 <defs>
  <clipPath id="p0a682f4029">
   <rect x="34.803125" y="7.2" width="185.527559" height="183.11811"/>
  </clipPath>
 </defs>
</svg>
